<svg id="layer1" xmlns="http://www.w3.org/2000/svg" viewBox="0 0 311.24 512"><defs><style>.cls-1{fill:#fe8e43;}.cls-2{fill:#fe9d5d;}.cls-3{fill:#fe9e5d;}</style></defs><path class="cls-1" d="M240.8,511.1c-31.13-2.52-58.65-14.2-82.7-33.79-32.55-26.53-51.56-61-56.81-102.56-4.86-38.42,3.91-74,25.44-106.19,8.78-13.13,15.61-26.91,18.45-42.59,3.21-17.69.89-34.67-5.43-51.34-18.69-49.25-10.9-94.14,23.62-133.76C182.86,18.5,208.27,6,237.5,1.13A23.82,23.82,0,0,1,241,1.06c-1.15,1-2.13,2.49-3.48,3.08C227,8.7,219,16.4,212,25.12A117.69,117.69,0,0,0,189.4,72.87c-3.14,13.79-4.38,28-6.37,42.07-.37,2.64.14,4.83,3.77,3.63a194.84,194.84,0,0,1,55-9.63c4.41-.14,6.34-2,6.3-7.07C247.86,67.92,248,34,248,0h15a42.85,42.85,0,0,1,1,6.3q.09,47.43,0,94.85c0,7.17.51,7.52,7.91,7.89a163.79,163.79,0,0,1,18.26,1.61c10.39,1.7,20.71,3.91,31.62,6a37.26,37.26,0,0,0,0-3.82c-.14-1.31-.7-2.59-.72-3.89A164.45,164.45,0,0,0,310.12,53.2c-7.67-20.36-17.85-39-37.81-50.15-.6-.34-.87-1.28-1.29-1.94a89.93,89.93,0,0,1,35.07,9.7,10.47,10.47,0,0,0,1,2.7,134.41,134.41,0,0,1,18.23,35.17C333,70.55,337.4,93,337,116.31c-.08,4.54,1.32,7.34,6,9a56.42,56.42,0,0,1,13.32,6.7c7.89,5.41,15.4,11.37,23.07,17.1l-5.31,20c-8.42-14.24-21.86-22.1-36.62-29.34-.57,2.55-1.11,4.43-1.39,6.35-.93,6.37-1.24,12.88-2.72,19.11A187.93,187.93,0,0,0,328.06,219,100.1,100.1,0,0,0,330,233.19a4.32,4.32,0,0,0,3.11,2.69c11.82.1,23.64-.07,35.45-.17L374.9,252H333.41c16.39,37.8,22.52,76.58,21.6,117.27,12.68-5.73,23.87-11.72,33.55-20.29a80.9,80.9,0,0,0,19.54-26q1.56,13,3.13,26a7.36,7.36,0,0,0-1.66,1.06c-14.45,16.5-32.66,27.39-52.64,35.78-1.79.75-3.37,3.61-3.79,5.74-2.27,11.48-3.65,23.15-6.25,34.55-5.53,24.33-15.15,46.95-30,67.21-1.82,2.48-3.24,5.26-4.85,7.9-12.38,5.79-25.49,8.68-39.05,9.76.29-.56.45-1.43.9-1.64,19.59-8.74,31.6-24.84,41.35-43s15.75-37.6,19.6-57.75c.95-5,1.43-10.11,2-14.25l-72.86,11V512H248V403.9c-27.71-1.41-54.59-4.89-81.34-13.14,3.55,16.38,7.33,32.31,12.26,47.88a130.29,130.29,0,0,0,26.47,47,92.29,92.29,0,0,0,17.13,15.11c6.17,4.21,13.32,7,19.55,10.16ZM248,320.53c0-21.32,0-42.63,0-63.95,0-2.83-.2-4.68-3.9-4.65-18.15.16-36.3,0-54.45.19a5.12,5.12,0,0,0-3.91,2.55c-4.41,12-9.16,23.88-12.62,36.14-7.22,25.58-8.81,51.85-8.22,78.31.07,3.2,1.55,4.17,4.21,5.1,23.78,8.36,48.48,11.71,73.44,13.83,4.53.39,5.57-1.25,5.52-5.58C247.88,361.82,248,341.17,248,320.53Zm16-.54c0,21.16.06,42.32-.07,63.48,0,3.43.94,5,4.5,4.53a66,66,0,0,1,7.37-.95c20.18-.57,39.71-4.87,59.08-10.15,3-.81,4.34-2.14,4.19-5.49-.51-11.78-.23-23.62-1.2-35.35-.94-11.34-2.11-22.82-4.89-33.8-4.06-16-9.57-31.73-14.75-47.46-.44-1.32-3.13-2.65-4.79-2.68-14.83-.2-29.66,0-44.49-.21-4-.06-5.06,1.2-5,5.1C264.09,278,264,299,264,320Zm-73.42-84.23c1.62.09,3.09.24,4.56.24,15.81,0,31.63-.16,47.43.12,4.51.08,5.55-1.31,5.53-5.64-.18-33.62-.1-67.25-.11-100.87,0-1.76-.18-3.51-.29-5.54a48.37,48.37,0,0,0-5,0c-8,.93-16.17,1.42-24.07,3-10.82,2.24-21.47,5.38-32.19,8.12-2.66.67-3.8,2.18-3.45,5,.92,7.54,1.15,15.2,2.62,22.62,3.13,15.75,7.13,31.34,6.39,47.58C191.61,218.72,191.08,226.94,190.58,235.76Zm74.36-112a10.44,10.44,0,0,0-.8,2q-.09,53.49-.17,107c0,2.71,1.19,3.4,3.64,3.39q21.5-.09,43,0c2.62,0,3.65-1,3.32-3.57-.38-3.12-.54-6.26-1-9.37-2.37-16.64-.24-33,2.61-49.4,2.1-12,3.66-24.18,5.45-36.27.39-2.67-.37-4.18-3.43-4.82-7.45-1.54-14.73-4-22.22-5.23C285.27,125.74,275.06,124.9,264.94,123.72Z" transform="translate(-99.98 0)"/><path class="cls-2" d="M240.8,511.1l1.27-.19c-6.23-3.16-13.38-6-19.55-10.16a92.29,92.29,0,0,1-17.13-15.11,130.29,130.29,0,0,1-26.47-47c-4.93-15.57-8.71-31.5-12.26-47.88C193.41,399,220.29,402.49,248,403.9V512h-7A1.75,1.75,0,0,0,240.8,511.1Z" transform="translate(-99.98 0)"/><path class="cls-2" d="M264,512V405.28l72.86-11c-.56,4.14-1,9.24-2,14.25-3.85,20.15-9.84,39.63-19.6,57.75s-21.76,34.22-41.35,43c-.45.21-.61,1.08-.9,1.64L271,512Z" transform="translate(-99.98 0)"/><path class="cls-2" d="M248,0c0,34-.14,67.92.15,101.87,0,5.12-1.89,6.93-6.3,7.07a194.84,194.84,0,0,0-55,9.63c-3.63,1.2-4.14-1-3.77-3.63,2-14,3.23-28.28,6.37-42.07A117.69,117.69,0,0,1,212,25.12c7-8.72,15-16.42,25.49-21,1.35-.59,2.33-2,3.48-3.08L242.8.85c.14.18.29.35.44.53l.07-.08-.45-.49A1.87,1.87,0,0,1,243,0Z" transform="translate(-99.98 0)"/><path class="cls-2" d="M271,1.11c.42.66.69,1.6,1.29,1.94,20,11.18,30.14,29.79,37.81,50.15A164.45,164.45,0,0,1,321,109c0,1.3.58,2.58.72,3.89a37.26,37.26,0,0,1,0,3.82c-10.91-2.1-21.23-4.31-31.62-6A163.79,163.79,0,0,0,271.91,109c-7.4-.37-7.91-.72-7.91-7.89q0-47.43,0-94.85A42.85,42.85,0,0,0,263,0h6l1.21,1A1.33,1.33,0,0,1,271,1.11Z" transform="translate(-99.98 0)"/><path class="cls-1" d="M270.21,1,269,0h1A2.23,2.23,0,0,0,270.21,1Z" transform="translate(-99.98 0)"/><path class="cls-3" d="M312.07,501.16c1.61-2.64,3-5.42,4.85-7.9,14.82-20.26,24.44-42.88,30-67.21,2.6-11.4,4-23.07,6.25-34.55.42-2.13,2-5,3.79-5.74,20-8.39,38.19-19.28,52.64-35.78a7.36,7.36,0,0,1,1.66-1.06c-.48,10.58.22,21.36-1.61,31.69-9.26,52.42-37.83,91-85.15,115.46C320.52,498.11,316.21,499.48,312.07,501.16Z" transform="translate(-99.98 0)"/><path class="cls-2" d="M408.1,322.94a80.9,80.9,0,0,1-19.54,26c-9.68,8.57-20.87,14.56-33.55,20.29.92-40.69-5.21-79.47-21.6-117.27H374.9c7.87,13.59,16.47,26.82,23.33,40.9C402.81,302.28,404.9,312.88,408.1,322.94Z" transform="translate(-99.98 0)"/><path class="cls-3" d="M379.35,149.07c-7.67-5.73-15.18-11.69-23.07-17.1a56.42,56.42,0,0,0-13.32-6.7c-4.67-1.62-6.07-4.42-6-9C337.4,93,333,70.55,325.33,48.68A134.41,134.41,0,0,0,307.1,13.51a10.47,10.47,0,0,1-1-2.7c11.46,4,21.38,10.74,30.46,18.54,26.36,22.68,42,51.22,44.39,86.15C381.7,126.6,380,137.88,379.35,149.07Z" transform="translate(-99.98 0)"/><path class="cls-3" d="M368.57,235.71c-11.81.1-23.63.27-35.45.17a4.32,4.32,0,0,1-3.11-2.69A100.1,100.1,0,0,1,328.06,219a187.93,187.93,0,0,1,5.25-53.75c1.48-6.23,1.79-12.74,2.72-19.11.28-1.92.82-3.8,1.39-6.35,14.76,7.24,28.2,15.1,36.62,29.34-2.68,9.54-5.91,19-7.93,28.65C363.46,210.51,365.61,223.2,368.57,235.71Z" transform="translate(-99.98 0)"/><path class="cls-2" d="M248,320.53c0,20.64-.12,41.29.1,61.94.05,4.33-1,6-5.52,5.58-25-2.12-49.66-5.47-73.44-13.83-2.66-.93-4.14-1.9-4.21-5.1-.59-26.46,1-52.73,8.22-78.31,3.46-12.26,8.21-24.16,12.62-36.14a5.12,5.12,0,0,1,3.91-2.55c18.15-.17,36.3,0,54.45-.19,3.7,0,3.91,1.82,3.9,4.65C248,277.9,248,299.21,248,320.53Z" transform="translate(-99.98 0)"/><path class="cls-2" d="M264,320c0-21,.09-42-.08-63,0-3.9,1-5.16,5-5.1,14.83.23,29.66,0,44.49.21,1.66,0,4.35,1.36,4.79,2.68,5.18,15.73,10.69,31.42,14.75,47.46,2.78,11,3.95,22.46,4.89,33.8,1,11.73.69,23.57,1.2,35.35.15,3.35-1.2,4.68-4.19,5.49-19.37,5.28-38.9,9.58-59.08,10.15a66,66,0,0,0-7.37.95c-3.56.51-4.52-1.1-4.5-4.53C264.06,362.31,264,341.15,264,320Z" transform="translate(-99.98 0)"/><path class="cls-2" d="M190.58,235.76c.5-8.82,1-17,1.4-25.27.74-16.24-3.26-31.83-6.39-47.58-1.47-7.42-1.7-15.08-2.62-22.62-.35-2.85.79-4.36,3.45-5,10.72-2.74,21.37-5.88,32.19-8.12,7.9-1.63,16-2.12,24.07-3a48.37,48.37,0,0,1,5,0c.11,2,.29,3.78.29,5.54,0,33.62-.07,67.25.11,100.87,0,4.33-1,5.72-5.53,5.64-15.8-.28-31.62-.1-47.43-.12C193.67,236,192.2,235.85,190.58,235.76Z" transform="translate(-99.98 0)"/><path class="cls-2" d="M264.94,123.72c10.12,1.18,20.33,2,30.41,3.66,7.49,1.23,14.77,3.69,22.22,5.23,3.06.64,3.82,2.15,3.43,4.82-1.79,12.09-3.35,24.23-5.45,36.27-2.85,16.38-5,32.76-2.61,49.4.44,3.11.6,6.25,1,9.37.33,2.6-.7,3.58-3.32,3.57q-21.5-.1-43,0c-2.45,0-3.65-.68-3.64-3.39q.13-53.49.17-107A10.44,10.44,0,0,1,264.94,123.72Z" transform="translate(-99.98 0)"/><path class="cls-1" d="M242.86.81l.45.49-.07.08c-.15-.18-.3-.35-.44-.53Z" transform="translate(-99.98 0)"/></svg>