<svg id="layer2" xmlns="http://www.w3.org/2000/svg" viewBox="0 0 509.25 507.61"><defs><style>.cls-1{fill:#fe8e43;}.cls-2{fill:#fe9d5d;}.cls-3{fill:#fe9e5d;}</style></defs><path class="cls-1" d="M216.38,440c-21.39,8.93-43.51,10.6-66,5.86-30.49-6.42-54.75-22.67-72.36-48.3-16.28-23.69-22.6-50.12-19.36-78.69,1.32-11.65,1.14-23.06-2.32-34.37-3.91-12.76-11.21-23.16-21-32C6.16,226.33-4,194.07,5.31,156.19c5.24-21.38,17.72-38.3,35.36-51.43A17.13,17.13,0,0,1,43,103.53c-.41,1.08-.56,2.37-1.25,3.22-5.39,6.58-8,14.38-9.67,22.51a87.27,87.27,0,0,0,1.33,39.18c2.63,10.17,6.65,20,10.12,29.91.65,1.88,1.73,3.14,3.72,1.12a144.26,144.26,0,0,1,33-25.09c2.86-1.59,3.52-3.44,1.74-6.8-11.74-22.3-23.2-44.74-34.76-67.13l9.89-5.11a30.81,30.81,0,0,1,2.78,3.83q16.2,31.24,32.3,62.54c2.44,4.72,2.9,4.78,7.9,2.51a121.36,121.36,0,0,1,12.59-5.15c7.43-2.42,15-4.47,22.9-6.8-.45-.87-.82-1.73-1.32-2.51s-1.34-1.47-1.8-2.32a122.3,122.3,0,0,0-26.17-33c-12-10.82-25-19.63-42-20.21-.52,0-1-.54-1.51-.84A66.75,66.75,0,0,1,89.2,87.81a7.9,7.9,0,0,0,1.58,1.44,99.31,99.31,0,0,1,24,17c12.53,11.8,23.06,25.14,30.69,40.63,1.49,3,3.37,4.4,7,3.87a42.22,42.22,0,0,1,11.06-.11c7,.88,14,2.26,21,3.43q1.65,7.51,3.32,15c-10.4-6.53-21.94-7.14-34.14-6.89.49,1.88.77,3.3,1.24,4.66,1.56,4.52,3.57,8.92,4.71,13.53a139.72,139.72,0,0,0,14.83,37.24,75.89,75.89,0,0,0,6.13,8.71,3.19,3.19,0,0,0,3,.71c7.83-4,15.56-8.09,23.32-12.18l9.71,8.58-27.36,14.12c23.67,19.35,40.91,42.84,54.15,70,6.42-8.09,11.76-15.85,15.22-24.8a60,60,0,0,0,4-23.81L273.58,275a5.56,5.56,0,0,0-.73,1.26c-3.92,15.8-12.22,29.17-22.54,41.51-.92,1.1-1,3.52-.55,5.07,2.42,8.35,5.48,16.51,7.65,24.92,4.62,17.93,6,36.11,3.09,54.51-.35,2.26-.34,4.58-.5,6.86a83,83,0,0,1-22.44,19.73c0-.47-.19-1.1,0-1.39,9.94-12.43,12.39-27.13,12.65-42.4s-2.4-30.15-6.73-44.75c-1.07-3.63-2.49-7.15-3.53-10.08l-44.32,32L232,432.65l-10.55,5.45-36.78-71.29c-18.75,8.49-37.67,15.35-58.11,19,7.91,9.59,15.83,18.81,24.38,27.4a96.66,96.66,0,0,0,33.44,22,68.94,68.94,0,0,0,16.44,4.13c5.5.67,11.16.08,16.35,0Zm-60.1-128.13q-10.87-21.07-21.74-42.17c-1-1.88-1.72-3-4.16-1.74-11.91,6.27-23.93,12.36-35.84,18.65a3.78,3.78,0,0,0-1.71,3c1.17,9.4,2.09,18.86,4,28.13,3.94,19.32,11.83,37.19,21.22,54.44,1.14,2.08,2.44,2.22,4.51,1.93,18.53-2.58,36-8.78,53.14-15.87,3.12-1.29,3.24-2.72,1.74-5.56C170.25,339.1,163.3,325.44,156.28,311.82ZM166.65,306c7.2,14,14.44,27.89,21.56,41.88,1.15,2.27,2.33,3,4.5,1.46a49.49,49.49,0,0,1,4.54-3.13c13.11-7.25,24.52-16.73,35.51-26.8,1.69-1.55,2.13-2.89.89-5.05-4.35-7.59-8.19-15.5-12.82-22.9-4.48-7.16-9.16-14.33-14.73-20.63-8.13-9.2-17.1-17.67-25.88-26.28-.73-.72-3-.68-4.06-.13-9.85,4.91-19.56,10.1-29.41,15-2.67,1.32-2.94,2.51-1.59,5.07C152.42,278.31,159.5,292.18,166.65,306ZM89.57,275.46c1.1-.49,2.11-.89,3.08-1.39C103.09,268.7,113.46,263.2,124,258c3-1.48,3.21-2.75,1.72-5.6-11.55-22.11-22.94-44.32-34.39-66.49-.6-1.15-1.32-2.25-2.08-3.55a34.5,34.5,0,0,0-3.3,1.72c-5,3.35-10.19,6.44-14.84,10.2-6.38,5.16-12.32,10.86-18.47,16.31a3,3,0,0,0-.56,4.49c3.17,4.66,5.93,9.64,9.43,14,7.42,9.32,15.36,18.24,20.4,29.2C84.45,263.87,86.89,269.47,89.57,275.46Zm10.91-99.19a7.68,7.68,0,0,0,.14,1.57q18.15,35.29,36.29,70.6c.91,1.79,1.94,1.83,3.55,1q14.14-7.37,28.35-14.62c1.73-.89,2.08-1.88,1-3.49-1.32-1.92-2.49-3.94-3.84-5.84-7.22-10.17-11.39-21.69-15.09-33.47-2.71-8.65-5.81-17.19-8.75-25.77-.65-1.9-1.66-2.63-3.89-2-5.44,1.51-11.08,2.37-16.44,4.11C114.58,170.68,107.56,173.61,100.48,176.27Z" transform="translate(-1.97 -2.61)"/><path class="cls-2" d="M216.38,440l.77-.55c-5.19,0-10.85.62-16.35,0a68.94,68.94,0,0,1-16.44-4.13,96.66,96.66,0,0,1-33.44-22c-8.55-8.59-16.47-17.81-24.38-27.4,20.44-3.66,39.36-10.52,58.11-19l36.78,71.29-4.61,2.38A1.41,1.41,0,0,0,216.38,440Z" transform="translate(-1.97 -2.61)"/><path class="cls-2" d="M232,432.65l-36.31-70.37,44.32-32c1,2.93,2.46,6.45,3.53,10.08,4.33,14.6,7,29.48,6.73,44.75s-2.71,30-12.65,42.4c-.23.29,0,.92,0,1.39l-1,1.4Z" transform="translate(-1.97 -2.61)"/><path class="cls-2" d="M47.21,100.45c11.56,22.39,23,44.83,34.76,67.13,1.78,3.36,1.12,5.21-1.74,6.8a144.26,144.26,0,0,0-33,25.09c-2,2-3.07.76-3.72-1.12C40,188.41,36,178.61,33.36,168.44A87.27,87.27,0,0,1,32,129.26c1.63-8.13,4.28-15.93,9.67-22.51.69-.85.84-2.14,1.25-3.22l1.12-.75.47.19,0-.07-.47-.17a1.46,1.46,0,0,1-.18-.58Z" transform="translate(-1.97 -2.61)"/><path class="cls-2" d="M62.77,93.34c.5.3,1,.83,1.51.84,17,.58,30,9.39,42,20.21a122.3,122.3,0,0,1,26.17,33.05c.46.85,1.26,1.5,1.8,2.32s.87,1.64,1.32,2.51c-7.91,2.33-15.47,4.38-22.9,6.8a121.36,121.36,0,0,0-12.59,5.15c-5,2.27-5.46,2.21-7.9-2.51Q76,130.44,59.88,99.17a30.81,30.81,0,0,0-2.78-3.83l4-2,1.12.22A1,1,0,0,1,62.77,93.34Z" transform="translate(-1.97 -2.61)"/><path class="cls-1" d="M62.18,93.52l-1.12-.22.66-.34A1.67,1.67,0,0,0,62.18,93.52Z" transform="translate(-1.97 -2.61)"/><path class="cls-3" d="M260,409.14c.16-2.28.15-4.6.5-6.86,2.88-18.4,1.53-36.58-3.09-54.51-2.17-8.41-5.23-16.57-7.65-24.92-.44-1.55-.37-4,.55-5.07,10.32-12.34,18.62-25.71,22.54-41.51a5.56,5.56,0,0,1,.73-1.26c3.29,7.13,7.41,14,9.73,21.44,11.73,37.73,6,72.87-16.87,105.12C264.53,404.26,262.16,406.63,260,409.14Z" transform="translate(-1.97 -2.61)"/><path class="cls-2" d="M262.68,258.94a60,60,0,0,1-4,23.81c-3.46,8.95-8.8,16.71-15.22,24.8-13.24-27.15-30.48-50.64-54.15-70l27.36-14.12c9.81,6.29,20,12.09,29.31,19C252.16,247.11,257.15,253.39,262.68,258.94Z" transform="translate(-1.97 -2.61)"/><path class="cls-3" d="M184.56,154.06c-7-1.17-14-2.55-21-3.43a42.22,42.22,0,0,0-11.06.11c-3.63.53-5.51-.84-7-3.87-7.63-15.49-18.16-28.83-30.69-40.63a99.31,99.31,0,0,0-24-17,7.9,7.9,0,0,1-1.58-1.44c8.93-1.25,17.75-.2,26.39,1.86,25.11,6,45.14,19.48,58.59,41.71C178.46,138.44,181.14,146.47,184.56,154.06Z" transform="translate(-1.97 -2.61)"/><path class="cls-3" d="M206.93,214.86c-7.76,4.09-15.49,8.22-23.32,12.18a3.19,3.19,0,0,1-3-.71,75.89,75.89,0,0,1-6.13-8.71,139.72,139.72,0,0,1-14.83-37.24c-1.14-4.61-3.15-9-4.71-13.53-.47-1.36-.75-2.78-1.24-4.66,12.2-.25,23.74.36,34.14,6.89,1.47,7.21,2.55,14.52,4.52,21.59C195,200,200.72,207.62,206.93,214.86Z" transform="translate(-1.97 -2.61)"/><path class="cls-2" d="M156.28,311.82c7,13.62,14,27.28,21.14,40.82,1.5,2.84,1.38,4.27-1.74,5.56-17.18,7.09-34.61,13.29-53.14,15.87-2.07.29-3.37.15-4.51-1.93-9.39-17.25-17.28-35.12-21.22-54.44-1.89-9.27-2.81-18.73-4-28.13a3.78,3.78,0,0,1,1.71-3c11.91-6.29,23.93-12.38,35.84-18.65,2.44-1.28,3.2-.14,4.16,1.74Q145.36,290.76,156.28,311.82Z" transform="translate(-1.97 -2.61)"/><path class="cls-2" d="M166.65,306c-7.15-13.85-14.23-27.72-21.49-41.51-1.35-2.56-1.08-3.75,1.59-5.07,9.85-4.9,19.56-10.09,29.41-15,1.1-.55,3.33-.59,4.06.13,8.78,8.61,17.75,17.08,25.88,26.28,5.57,6.3,10.25,13.47,14.73,20.63,4.63,7.4,8.47,15.31,12.82,22.9,1.24,2.16.8,3.5-.89,5.05-11,10.07-22.4,19.55-35.51,26.8a49.49,49.49,0,0,0-4.54,3.13c-2.17,1.55-3.35.81-4.5-1.46C181.09,333.92,173.85,320,166.65,306Z" transform="translate(-1.97 -2.61)"/><path class="cls-2" d="M89.57,275.46c-2.68-6-5.12-11.59-7.68-17.14-5-11-13-19.88-20.4-29.2-3.5-4.39-6.26-9.37-9.43-14a3,3,0,0,1,.56-4.49c6.15-5.45,12.09-11.15,18.47-16.31,4.65-3.76,9.85-6.85,14.84-10.2a34.5,34.5,0,0,1,3.3-1.72c.76,1.3,1.48,2.4,2.08,3.55,11.45,22.17,22.84,44.38,34.39,66.49,1.49,2.85,1.28,4.12-1.72,5.6-10.52,5.19-20.89,10.69-31.33,16.06C91.68,274.57,90.67,275,89.57,275.46Z" transform="translate(-1.97 -2.61)"/><path class="cls-2" d="M100.48,176.27c7.08-2.66,14.1-5.59,21.3-7.93,5.36-1.74,11-2.6,16.44-4.11,2.23-.62,3.24.11,3.89,2,2.94,8.58,6,17.12,8.75,25.77,3.7,11.78,7.87,23.3,15.09,33.47,1.35,1.9,2.52,3.92,3.84,5.84,1.1,1.61.75,2.6-1,3.49q-14.2,7.24-28.35,14.62c-1.61.84-2.64.8-3.55-1q-18.1-35.33-36.29-70.6A7.68,7.68,0,0,1,100.48,176.27Z" transform="translate(-1.97 -2.61)"/><path class="cls-1" d="M44.09,102.73l.47.17,0,.07-.47-.19Z" transform="translate(-1.97 -2.61)"/><path class="cls-1" d="M292.64,502.81C262.66,494,238.08,477,218.5,453,192,420.39,180.36,382.8,183.64,341c3-38.6,18.82-71.65,46.44-98.83,11.25-11.08,20.73-23.19,26.69-38,6.73-16.68,7.9-33.77,5.08-51.37-8.32-52,8.4-94.4,50.24-126.21,23.61-18,51-25.1,80.64-23.9a24.09,24.09,0,0,1,3.43.65c-1.34.79-2.59,2-4,2.31C380.9,8,371.51,14,362.92,21.08A117.42,117.42,0,0,0,331.1,63.26c-5.88,12.87-10,26.55-14.77,39.9-.9,2.52-.84,4.76,3,4.32a195.15,195.15,0,0,1,55.86,1.72c4.35.76,6.6-.62,7.6-5.64C389.34,70.25,396.36,37,403.24,3.77l14.69,3a41.89,41.89,0,0,1-.34,6.36q-9.52,46.47-19.18,92.89c-1.45,7-1,7.47,6.15,9.33a165.69,165.69,0,0,1,17.55,5.28c9.84,3.76,19.49,8,29.75,12.29.27-1.29.62-2.51.75-3.75s-.16-2.67.09-4a165,165,0,0,0,.6-56.81c-3.39-21.49-9.59-41.78-26.87-56.77-.52-.45-.59-1.43-.87-2.16a89.86,89.86,0,0,1,32.38,16.61,10.48,10.48,0,0,0,.43,2.84,134.32,134.32,0,0,1,10.74,38.14c3.11,23,2.83,45.88-2.31,68.58-1,4.44-.2,7.46,4.05,10a55.91,55.91,0,0,1,11.68,9.26c6.64,6.89,12.78,14.25,19.13,21.42l-9.25,18.55c-5.36-15.65-16.93-26.08-29.92-36.16-1.07,2.39-2,4.12-2.65,5.94-2.2,6.05-3.82,12.36-6.54,18.16a188,188,0,0,0-16,51.58,100.7,100.7,0,0,0-1,14.31,4.28,4.28,0,0,0,2.51,3.26c11.55,2.49,23.15,4.72,34.75,7l2.9,17.22-40.63-8.41c8.39,40.34,6.53,79.57-2.61,119.22,13.58-3,25.75-6.64,37-13.07a81.12,81.12,0,0,0,24.41-21.53q-1.11,13-2.2,26.07a7.11,7.11,0,0,0-1.84.71c-17.49,13.22-37.53,20.2-58.8,24.37-1.9.37-4,2.85-4.87,4.85-4.55,10.78-8.27,21.93-13.12,32.57-10.35,22.71-24.35,42.9-43,59.74-2.28,2.06-4.24,4.49-6.34,6.75-13.31,3.17-26.73,3.34-40.23,1.65.4-.49.73-1.31,1.22-1.42,20.95-4.6,36-17.92,49.2-33.69s23-33.63,30.89-52.58c2-4.71,3.44-9.61,4.84-13.56l-73.58-4-21.62,104.5-15.67-3.24,21.91-105.86c-26.85-7-52.47-15.85-77-29.34.17,16.75.64,33.12,2.31,49.37a130.37,130.37,0,0,0,16.39,51.38A92.62,92.62,0,0,0,276.83,489c5.19,5.37,11.62,9.55,17.08,13.91ZM338.3,317.65q6.48-31.31,13-62.61c.58-2.77.75-4.63-2.89-5.35-17.8-3.52-35.55-7.34-53.35-10.85a5.15,5.15,0,0,0-4.35,1.71C284,251.38,276.9,262.08,271,273.38c-12.25,23.58-19.13,49-23.92,75-.57,3.14.68,4.39,3.09,5.84,21.6,13,45.11,21.29,69.12,28.42,4.36,1.3,5.7-.1,6.54-4.34C329.81,358.06,334.12,337.87,338.3,317.65Zm15.78,2.71c-4.29,20.73-8.52,41.46-12.93,62.16-.72,3.35-.1,5.12,3.48,5.34a67.29,67.29,0,0,1,7.41.56c19.88,3.53,39.87,3.28,59.91,2,3.1-.19,4.69-1.22,5.22-4.54,1.88-11.64,4.56-23.17,6-34.86,1.37-11.29,2.55-22.77,2.06-34.08-.73-16.54-2.94-33-4.83-49.47-.16-1.38-2.53-3.23-4.15-3.59-14.48-3.21-29.05-6-43.52-9.22-3.92-.87-5.21.14-6,4C362.67,279.27,358.33,299.81,354.08,320.36ZM299.25,223c1.56.42,3,.86,4.41,1.16,15.48,3.22,31,6.25,46.43,9.73,4.39,1,5.69-.16,6.55-4.4,6.64-33,13.53-65.87,20.33-98.8.35-1.72.54-3.48.84-5.49a47.93,47.93,0,0,0-4.92-1c-8.06-.72-16.12-1.89-24.19-1.89-11.05,0-22.11.92-33.17,1.42-2.74.13-4.16,1.38-4.4,4.23-.62,7.57-1.95,15.12-2,22.69-.13,16.05.63,32.13-3.38,47.88C303.71,206.52,301.52,214.47,299.25,223Zm95.52-94.64c-.84,1.21-1.13,1.46-1.19,1.75q-10.92,52.37-21.84,104.72c-.55,2.65.48,3.57,2.88,4q21.06,4.27,42.1,8.71c2.56.55,3.77-.2,4-2.82.25-3.13.74-6.24.93-9.37,1.06-16.78,6.45-32.38,12.57-47.85,4.49-11.37,8.48-22.93,12.68-34.41.92-2.54.48-4.17-2.38-5.41-7-3-13.62-6.91-20.7-9.63C414.26,134.45,404.44,131.56,394.77,128.36Z" transform="translate(-1.97 -2.61)"/><path class="cls-2" d="M292.64,502.81l1.27.07c-5.46-4.36-11.89-8.54-17.08-13.91a92.62,92.62,0,0,1-13.72-18.27,130.37,130.37,0,0,1-16.39-51.38c-1.67-16.25-2.14-32.62-2.31-49.37,24.53,13.49,50.15,22.34,77,29.34L299.5,505.15l-6.85-1.42A1.79,1.79,0,0,0,292.64,502.81Z" transform="translate(-1.97 -2.61)"/><path class="cls-2" d="M315.17,508.39l21.62-104.5,73.58,4c-1.4,3.95-2.89,8.85-4.84,13.56-7.85,18.95-17.67,36.81-30.89,52.58s-28.25,29.09-49.2,33.69c-.49.11-.82.93-1.22,1.42l-2.19.65Z" transform="translate(-1.97 -2.61)"/><path class="cls-2" d="M403.24,3.77c-6.88,33.25-13.9,66.48-20.49,99.79-1,5-3.25,6.4-7.6,5.64a195.15,195.15,0,0,0-55.86-1.72c-3.8.44-3.86-1.8-3-4.32,4.8-13.35,8.89-27,14.77-39.9a117.42,117.42,0,0,1,31.82-42.18c8.59-7.13,18-13,29.21-15.38,1.44-.3,2.69-1.52,4-2.31l1.81.16.33.6.08-.05L398,3.52a2.09,2.09,0,0,1,.3-.76Z" transform="translate(-1.97 -2.61)"/><path class="cls-2" d="M425.56,9.52c.28.73.35,1.71.87,2.16,17.28,15,23.48,35.28,26.87,56.77a165,165,0,0,1-.6,56.81c-.25,1.28,0,2.64-.09,4s-.48,2.46-.75,3.75c-10.26-4.27-19.91-8.53-29.75-12.29a165.69,165.69,0,0,0-17.55-5.28c-7.17-1.86-7.6-2.31-6.15-9.33Q408,59.62,417.59,13.17a41.89,41.89,0,0,0,.34-6.36L423.81,8l1,1.18A1.33,1.33,0,0,1,425.56,9.52Z" transform="translate(-1.97 -2.61)"/><path class="cls-1" d="M424.8,9.2l-1-1.18,1,.21A2.27,2.27,0,0,0,424.8,9.2Z" transform="translate(-1.97 -2.61)"/><path class="cls-3" d="M364.45,507.51c2.1-2.26,4.06-4.69,6.34-6.75,18.62-16.84,32.62-37,43-59.74,4.85-10.64,8.57-21.79,13.12-32.57.84-2,3-4.48,4.87-4.85,21.27-4.17,41.31-11.15,58.8-24.37a7.11,7.11,0,0,1,1.84-.71c-2.61,10.26-4.12,21-8,30.71C464.7,458.69,428.92,490.65,377.62,505,373.33,506.25,368.84,506.71,364.45,507.51Z" transform="translate(-1.97 -2.61)"/><path class="cls-2" d="M494.59,352.45A81.12,81.12,0,0,1,470.18,374c-11.21,6.43-23.38,10-37,13.07,9.14-39.65,11-78.88,2.61-119.22l40.63,8.41c4.94,14.9,10.69,29.6,14.55,44.78C493.59,331.14,493.49,342,494.59,352.45Z" transform="translate(-1.97 -2.61)"/><path class="cls-3" d="M501.66,176.36c-6.35-7.17-12.49-14.53-19.13-21.42a55.91,55.91,0,0,0-11.68-9.26c-4.25-2.53-5.05-5.55-4.05-10,5.14-22.7,5.42-45.61,2.31-68.58A134.32,134.32,0,0,0,458.37,29a10.48,10.48,0,0,1-.43-2.84C468.35,32.39,476.7,41,484,50.45c21.23,27.55,30.78,58.68,26,93.36C508.51,154.83,504.52,165.52,501.66,176.36Z" transform="translate(-1.97 -2.61)"/><path class="cls-3" d="M473.56,259c-11.6-2.3-23.2-4.53-34.75-7a4.28,4.28,0,0,1-2.51-3.26,100.7,100.7,0,0,1,1-14.31,188,188,0,0,1,16-51.58c2.72-5.8,4.34-12.11,6.54-18.16.66-1.82,1.58-3.55,2.65-5.94,13,10.08,24.56,20.51,29.92,36.16-4.57,8.8-9.64,17.38-13.57,26.45C473.66,233.31,473.19,246.16,473.56,259Z" transform="translate(-1.97 -2.61)"/><path class="cls-2" d="M338.3,317.65c-4.18,20.22-8.49,40.41-12.45,60.68-.84,4.24-2.18,5.64-6.54,4.34-24-7.13-47.52-15.41-69.12-28.42-2.41-1.45-3.66-2.7-3.09-5.84,4.79-26,11.67-51.45,23.92-75,5.88-11.3,12.94-22,19.68-32.83a5.15,5.15,0,0,1,4.35-1.71c17.8,3.51,35.55,7.33,53.35,10.85,3.64.72,3.47,2.58,2.89,5.35Q344.72,286.33,338.3,317.65Z" transform="translate(-1.97 -2.61)"/><path class="cls-2" d="M354.07,320.36c4.26-20.55,8.6-41.09,12.69-61.69.75-3.83,2-4.84,6-4,14.47,3.23,29,6,43.52,9.22,1.62.36,4,2.21,4.15,3.59,1.89,16.46,4.1,32.93,4.83,49.47.49,11.31-.69,22.79-2.06,34.08-1.43,11.69-4.11,23.22-6,34.86-.53,3.32-2.12,4.35-5.22,4.54-20,1.24-40,1.49-59.91-2a67.29,67.29,0,0,0-7.41-.56c-3.58-.22-4.2-2-3.48-5.34C345.56,361.82,349.79,341.09,354.07,320.36Z" transform="translate(-1.97 -2.61)"/><path class="cls-2" d="M299.25,223c2.27-8.53,4.46-16.48,6.49-24.46,4-15.75,3.25-31.83,3.38-47.88.06-7.57,1.39-15.12,2-22.69.24-2.85,1.66-4.1,4.4-4.23,11.06-.5,22.12-1.42,33.17-1.42,8.07,0,16.13,1.17,24.19,1.89a47.93,47.93,0,0,1,4.92,1c-.3,2-.49,3.77-.84,5.49-6.8,32.93-13.69,65.84-20.33,98.8-.86,4.24-2.16,5.39-6.55,4.4-15.43-3.48-30.95-6.51-46.43-9.73C302.22,223.86,300.81,223.42,299.25,223Z" transform="translate(-1.97 -2.61)"/><path class="cls-2" d="M394.77,128.36c9.67,3.2,19.49,6.09,29,9.74,7.08,2.72,13.72,6.61,20.7,9.63,2.86,1.24,3.3,2.87,2.38,5.41-4.2,11.48-8.19,23-12.68,34.41-6.12,15.47-11.51,31.07-12.57,47.85-.19,3.13-.68,6.24-.93,9.37-.21,2.62-1.42,3.37-4,2.82q-21-4.46-42.1-8.71c-2.4-.48-3.43-1.4-2.88-4q11-52.35,21.84-104.72C393.64,129.82,393.93,129.57,394.77,128.36Z" transform="translate(-1.97 -2.61)"/><path class="cls-1" d="M398,3.52l.34.58-.08.05-.33-.6Z" transform="translate(-1.97 -2.61)"/></svg>