<svg id="layer3" xmlns="http://www.w3.org/2000/svg" viewBox="0 0 509.99 507.25"><defs><style>.cls-1{fill:#fe8e43;}.cls-2{fill:#fe9d5d;}.cls-3{fill:#fe9e5d;}</style></defs><path class="cls-1" d="M227.16,343.94c-20.86,3.33-40.8.08-59.74-8.94-25.63-12.2-43.65-31.78-53.76-58.24-9.35-24.46-9.29-49.22-.32-73.83,3.66-10,5.94-20.18,5.29-30.93-.73-12.14-5-22.92-11.8-32.85C86.66,109.8,84.58,79.07,100.9,47.5c9.21-17.81,23.89-30.13,42.31-38a17.35,17.35,0,0,1,2.28-.6,10.38,10.38,0,0,1-1.79,2.58c-6.18,4.68-10.2,11-13.38,17.87a79.54,79.54,0,0,0-7.19,35c.14,9.56,1.61,19.11,2.56,28.65.17,1.8.86,3.15,3.06,1.78a131.54,131.54,0,0,1,34.61-15.15c2.87-.8,3.85-2.3,3-5.65-5.63-22.26-11-44.59-16.43-66.89l9.85-2.41a29.13,29.13,0,0,1,1.64,4Q169.09,39.81,176.66,71c1.15,4.71,1.54,4.86,6.46,3.91A115.36,115.36,0,0,1,195.37,73c7.1-.55,14.23-.75,21.73-1.12-.21-.86-.35-1.71-.63-2.51s-.87-1.58-1.1-2.43a111,111,0,0,0-16.11-34.87c-8.3-12.14-18-22.73-32.88-26.88-.45-.12-.77-.7-1.16-1.06a60.64,60.64,0,0,1,24.59.75,7.15,7.15,0,0,0,1.1,1.61,91.14,91.14,0,0,1,17.62,20.17c8.56,13.13,15,27.2,18.48,42.55.68,3,2.05,4.62,5.38,4.93a38.2,38.2,0,0,1,9.82,2.27c6,2.28,11.94,5,17.89,7.53l-.27,14c-7.81-8-17.9-11-28.76-13.4,0,1.77,0,3.09.11,4.39.41,4.34,1.25,8.66,1.27,13a127,127,0,0,0,5.18,36.15,68.42,68.42,0,0,0,3.56,9,2.9,2.9,0,0,0,2.47,1.27c7.78-1.83,15.51-3.84,23.26-5.8l6.77,9.68-27.25,6.65c16.82,22.2,27.07,46.69,33,73.56,7.41-5.79,13.8-11.52,18.78-18.71a54.74,54.74,0,0,0,8.66-20.23q3.11,8.29,6.22,16.57a4.89,4.89,0,0,0-.92,1c-6.85,13.15-17.06,23.22-28.84,31.94-1.05.78-1.63,2.91-1.57,4.38.35,7.9,1.32,15.79,1.44,23.7A121.66,121.66,0,0,1,274.29,320c-.8,1.93-1.28,4-1.92,6a75.68,75.68,0,0,1-24.08,12.67c.1-.41.06-1,.33-1.22,11.46-8.88,16.77-21.38,20.27-34.84s4.31-27.22,3.61-41.08c-.18-3.44-.68-6.87-1-9.68l-46.1,18.89,17.11,70.09L232,343.37l-17.34-71c-18.42,3.52-36.64,5.55-55.53,4.42,5,10.18,10,20,15.74,29.48a88.07,88.07,0,0,0,24.91,26.63,62.62,62.62,0,0,0,13.68,7.17c4.73,1.78,9.87,2.46,14.47,3.54ZM201.33,217.61q-5.13-21-10.24-42c-.44-1.86-.88-3-3.31-2.43-11.89,3-23.84,5.83-35.73,8.85a3.48,3.48,0,0,0-2.16,2.31c-1,8.57-2.18,17.15-2.49,25.76-.64,18,2.52,35.47,7.16,52.75.56,2.09,1.68,2.49,3.58,2.68,17,1.68,33.72-.09,50.45-2.69,3-.48,3.46-1.72,2.73-4.56C207.87,244.76,204.64,231.18,201.33,217.61Zm10.42-2.91c3.39,13.89,6.83,27.78,10.14,41.7.53,2.26,1.42,3.16,3.67,2.26a43.18,43.18,0,0,1,4.69-1.81c13.17-3.61,25.3-9.57,37.18-16.14,1.83-1,2.51-2.1,1.87-4.28-2.23-7.66-3.94-15.48-6.46-23A140.07,140.07,0,0,0,254.21,192c-5.24-9.89-11.37-19.31-17.3-28.81-.5-.79-2.48-1.24-3.57-1-9.78,2.24-19.48,4.77-29.26,7-2.64.6-3.13,1.59-2.49,4.15C205.08,187.1,208.38,200.91,211.75,214.7ZM150,171.14c1.08-.2,2.07-.33,3-.57,10.39-2.52,20.75-5.17,31.18-7.53,3-.67,3.43-1.75,2.72-4.58-5.51-22.06-10.84-44.16-16.25-66.24-.28-1.15-.68-2.28-1.07-3.59a31.07,31.07,0,0,0-3.3.82C161.2,91.35,155.94,93,151,95.31c-6.75,3.21-13.23,7-19.84,10.49a2.74,2.74,0,0,0-1.46,3.86c1.81,4.8,3.19,9.8,5.35,14.44,4.58,9.84,9.7,19.44,11.83,30.22C148,159.79,148.93,165.27,150,171.14ZM180.9,85.63a6.54,6.54,0,0,0-.22,1.42q8.52,35.15,17,70.29c.43,1.77,1.33,2,2.93,1.64q14.11-3.51,28.24-6.9c1.73-.41,2.25-1.22,1.61-2.87-.75-2-1.35-4-2.14-6-4.23-10.55-5.46-21.65-6.21-32.87-.56-8.24-1.47-16.46-2.24-24.69-.17-1.82-.91-2.69-3-2.61-5.14.18-10.32-.27-15.44.12C194.57,83.7,187.73,84.79,180.9,85.63Z" transform="translate(-2.01 -3.22)"/><path class="cls-2" d="M227.16,343.94l.8-.33c-4.6-1.08-9.74-1.76-14.47-3.54a62.62,62.62,0,0,1-13.68-7.17,88.07,88.07,0,0,1-24.91-26.63c-5.74-9.44-10.78-19.3-15.74-29.48,18.89,1.13,37.11-.9,55.53-4.42l17.34,71-4.6,1.13A1.17,1.17,0,0,0,227.16,343.94Z" transform="translate(-2.01 -3.22)"/><path class="cls-2" d="M242.54,340.81l-17.11-70.09,46.1-18.89c.29,2.81.79,6.24,1,9.68.7,13.86-.11,27.61-3.61,41.08s-8.81,26-20.27,34.84c-.27.21-.23.81-.33,1.22l-1.15,1Z" transform="translate(-2.01 -3.22)"/><path class="cls-2" d="M149.93,7.09c5.44,22.3,10.8,44.63,16.43,66.89.85,3.35-.13,4.85-3,5.65a131.54,131.54,0,0,0-34.61,15.15c-2.2,1.37-2.89,0-3.06-1.78-1-9.54-2.42-19.09-2.56-28.65a79.54,79.54,0,0,1,7.19-35c3.18-6.85,7.2-13.19,13.38-17.87a10.38,10.38,0,0,0,1.79-2.58l1.16-.43.37.28,0-.06-.38-.25a1.5,1.5,0,0,1,0-.56Z" transform="translate(-2.01 -3.22)"/><path class="cls-2" d="M165.22,4.13c.39.36.71.94,1.16,1.06,14.9,4.15,24.58,14.74,32.88,26.88a111,111,0,0,1,16.11,34.87c.23.85.8,1.6,1.1,2.43s.42,1.65.63,2.51c-7.5.37-14.63.57-21.73,1.12a115.36,115.36,0,0,0-12.25,1.87c-4.92.95-5.31.8-6.46-3.91q-7.6-31.14-15.24-62.29a29.13,29.13,0,0,0-1.64-4l3.94-1,.95.44A.87.87,0,0,1,165.22,4.13Z" transform="translate(-2.01 -3.22)"/><path class="cls-1" d="M164.67,4.16l-.95-.44.66-.16A1.52,1.52,0,0,0,164.67,4.16Z" transform="translate(-2.01 -3.22)"/><path class="cls-3" d="M272.37,326c.64-2,1.12-4,1.92-6a121.66,121.66,0,0,0,8.91-48.94c-.12-7.91-1.09-15.8-1.44-23.7-.06-1.47.52-3.6,1.57-4.38,11.78-8.72,22-18.79,28.84-31.94a4.89,4.89,0,0,1,.92-1c1.38,7,3.57,14,4,21.07,2.33,35.92-10.25,65.81-37.41,89.49C277.43,322.63,274.82,324.21,272.37,326Z" transform="translate(-2.01 -3.22)"/><path class="cls-2" d="M306.87,193.52a54.74,54.74,0,0,1-8.66,20.23c-5,7.19-11.37,12.92-18.78,18.71-5.92-26.87-16.17-51.36-33-73.56l27.25-6.65c7.34,7.66,15.11,15,21.88,23.12C300.08,180.8,303.15,187.43,306.87,193.52Z" transform="translate(-2.01 -3.22)"/><path class="cls-3" d="M260.1,83.94c-6-2.54-11.84-5.25-17.89-7.53a38.2,38.2,0,0,0-9.82-2.27c-3.33-.31-4.7-1.93-5.38-4.93-3.44-15.35-9.92-29.42-18.48-42.55A91.14,91.14,0,0,0,190.91,6.49a7.15,7.15,0,0,1-1.1-1.61c8.18.8,15.77,3.62,23,7.29,21,10.66,35.82,26.9,43,49.46C258,68.8,258.7,76.49,260.1,83.94Z" transform="translate(-2.01 -3.22)"/><path class="cls-3" d="M266.92,142.57c-7.75,2-15.48,4-23.26,5.8a2.9,2.9,0,0,1-2.47-1.27,68.42,68.42,0,0,1-3.56-9,127,127,0,0,1-5.18-36.15c0-4.33-.86-8.65-1.27-13-.13-1.3-.07-2.62-.11-4.39,10.86,2.39,21,5.4,28.76,13.4-.23,6.7-.84,13.41-.61,20.09C259.52,126.84,263,134.83,266.92,142.57Z" transform="translate(-2.01 -3.22)"/><path class="cls-2" d="M201.33,217.61c3.31,13.57,6.54,27.15,10,40.67.73,2.84.31,4.08-2.73,4.56-16.73,2.6-33.49,4.37-50.45,2.69-1.9-.19-3-.59-3.58-2.68-4.64-17.28-7.8-34.8-7.16-52.75.31-8.61,1.52-17.19,2.49-25.76a3.48,3.48,0,0,1,2.16-2.31c11.89-3,23.84-5.84,35.73-8.85,2.43-.61,2.87.57,3.31,2.43Q196.16,196.63,201.33,217.61Z" transform="translate(-2.01 -3.22)"/><path class="cls-2" d="M211.75,214.7c-3.37-13.79-6.67-27.6-10.16-41.36-.64-2.56-.15-3.55,2.49-4.15,9.78-2.23,19.48-4.76,29.26-7,1.09-.25,3.07.2,3.57,1,5.93,9.5,12.06,18.92,17.3,28.81a140.07,140.07,0,0,1,8.63,21.41c2.52,7.55,4.23,15.37,6.46,23,.64,2.18,0,3.27-1.87,4.28-11.88,6.57-24,12.53-37.18,16.14a43.18,43.18,0,0,0-4.69,1.81c-2.25.9-3.14,0-3.67-2.26C218.58,242.48,215.14,228.59,211.75,214.7Z" transform="translate(-2.01 -3.22)"/><path class="cls-2" d="M150,171.14c-1.09-5.87-2.05-11.35-3.13-16.82-2.13-10.78-7.25-20.38-11.83-30.22-2.16-4.64-3.54-9.64-5.35-14.44a2.74,2.74,0,0,1,1.46-3.86c6.61-3.51,13.09-7.28,19.84-10.49,4.93-2.34,10.19-4,15.32-5.86a31.07,31.07,0,0,1,3.3-.82c.39,1.31.79,2.44,1.07,3.59,5.41,22.08,10.74,44.18,16.25,66.24.71,2.83.25,3.91-2.72,4.58-10.43,2.36-20.79,5-31.18,7.53C152.09,170.81,151.1,170.94,150,171.14Z" transform="translate(-2.01 -3.22)"/><path class="cls-2" d="M180.9,85.63c6.83-.84,13.67-1.93,20.55-2.47,5.12-.39,10.3.06,15.44-.12,2.11-.08,2.85.79,3,2.61.77,8.23,1.68,16.45,2.24,24.69.75,11.22,2,22.32,6.21,32.87.79,2,1.39,4,2.14,6,.64,1.65.12,2.46-1.61,2.87q-14.13,3.39-28.24,6.9c-1.6.4-2.5.13-2.93-1.64q-8.47-35.16-17-70.29A6.54,6.54,0,0,1,180.9,85.63Z" transform="translate(-2.01 -3.22)"/><path class="cls-1" d="M146.68,8.45l.38.25,0,.06-.37-.28Z" transform="translate(-2.01 -3.22)"/><path class="cls-1" d="M155.25,507c-18.9,5.22-37.64,4.27-56-2.1-24.91-8.62-43.55-24.84-55.61-48.22C32.44,435.07,30,412.21,35.7,388.57c2.35-9.63,3.41-19.23,1.7-29.09-1.93-11.12-6.95-20.63-14.27-29.1-21.64-25-26.72-53.16-14.91-84,6.67-17.39,19-30.27,35.14-39.41a14,14,0,0,1,2-.79A9.66,9.66,0,0,1,44,208.77c-5.23,5-8.28,11.22-10.51,17.87a73.79,73.79,0,0,0-3,33c1.12,8.81,3.46,17.47,5.31,26.18.35,1.64,1.12,2.82,3,1.33a122.56,122.56,0,0,1,30.38-17.55c2.57-1,3.32-2.51,2.19-5.52-7.49-20-14.73-40-22-60l8.85-3.23a26.05,26.05,0,0,1,1.92,3.51q10.28,27.94,20.47,55.92c1.55,4.22,1.93,4.32,6.37,2.94a102.28,102.28,0,0,1,11.11-3c6.5-1.25,13-2.17,19.94-3.28-.28-.77-.5-1.54-.84-2.25s-1-1.37-1.26-2.13A103.51,103.51,0,0,0,97.41,222c-8.91-10.35-18.93-19.13-33.11-21.41-.43-.07-.78-.57-1.18-.87a56.56,56.56,0,0,1,22.78-1.84,6.57,6.57,0,0,0,1.17,1.38,84.19,84.19,0,0,1,18.34,16.8,120.45,120.45,0,0,1,21.44,37.37c.93,2.7,2.36,4,5.46,4a35.53,35.53,0,0,1,9.3,1.09c5.82,1.48,11.53,3.38,17.29,5.1q.6,6.5,1.19,13c-8-6.59-17.65-8.33-27.92-9.41.22,1.62.3,2.85.55,4,.83,4,2.05,7.86,2.51,11.86a118.2,118.2,0,0,0,8.5,32.83,64.42,64.42,0,0,0,4.21,8,2.72,2.72,0,0,0,2.42.91c7-2.49,13.92-5.14,20.87-7.74l7.24,8.23L154,334.24c17.81,18.76,29.79,40.31,38,64.5,6.24-6.11,11.55-12.06,15.41-19.2A51,51,0,0,0,213.34,360l7.44,14.65a4.28,4.28,0,0,0-.74,1c-5,12.84-13.36,23.19-23.33,32.44-.9.83-1.21,2.86-1,4.2,1.14,7.27,2.84,14.45,3.77,21.73a113,113,0,0,1-3.19,46.09c-.54,1.86-.78,3.8-1.15,5.7A70.34,70.34,0,0,1,174.21,500c0-.4,0-.94.18-1.16,9.67-9.38,13.28-21.46,15.12-34.25s1.18-25.56-.89-38.28c-.52-3.16-1.34-6.27-1.9-8.83l-40.6,22.17,23,62.93L159.69,506l-23.3-63.75c-16.65,5.14-33.25,8.89-50.8,9.8,5.63,8.88,11.29,17.47,17.55,25.58a81.71,81.71,0,0,0,25.74,22,57.66,57.66,0,0,0,13.36,5.22c4.55,1.15,9.36,1.25,13.72,1.78ZM118.41,393.07q-6.89-18.85-13.76-37.71c-.61-1.67-1.13-2.72-3.31-1.9-10.67,4-21.4,7.83-32.07,11.85a3.23,3.23,0,0,0-1.75,2.34c0,8-.25,16.06.35,24,1.26,16.63,6,32.47,12,47.95.73,1.87,1.81,2.12,3.58,2.1,15.82-.2,31.11-3.55,46.28-7.68,2.76-.75,3-1.94,2-4.48C127.24,417.45,122.86,405.25,118.41,393.07Zm9.32-3.76c4.56,12.48,9.16,24.94,13.65,37.44.73,2,1.64,2.77,3.62,1.71a40.82,40.82,0,0,1,4.15-2.15c11.77-4.69,22.36-11.44,32.65-18.72,1.58-1.13,2.09-2.2,1.28-4.15-2.84-6.83-5.22-13.87-8.33-20.58A130.3,130.3,0,0,0,164.58,364c-5.85-8.58-12.48-16.64-18.93-24.81-.54-.68-2.41-.88-3.4-.54-8.79,3.07-17.48,6.4-26.28,9.47-2.37.82-2.73,1.79-1.86,4.09C118.73,364.53,123.21,376.93,127.73,389.31ZM66.28,355.46c1-.29,1.87-.52,2.74-.83,9.33-3.4,18.61-6.92,28-10.16,2.67-.92,3-2,2-4.51-7.35-19.79-14.55-39.64-21.81-59.46-.38-1-.86-2-1.37-3.21a30.63,30.63,0,0,0-3,1.1c-4.53,2.28-9.22,4.32-13.53,7-5.9,3.66-11.5,7.81-17.23,11.73a2.54,2.54,0,0,0-.95,3.71c2.17,4.25,3.95,8.72,6.42,12.78,5.24,8.61,11,16.94,14,26.67C63.21,345.19,64.67,350.16,66.28,355.46ZM86,273.37a6.38,6.38,0,0,0-.06,1.33q11.49,31.56,23,63.11c.57,1.6,1.43,1.75,2.87,1.22q12.66-4.69,25.35-9.27c1.55-.56,1.95-1.36,1.19-2.82-.9-1.76-1.67-3.58-2.6-5.32-5-9.3-7.26-19.41-9.11-29.69-1.36-7.55-3-15-4.61-22.56-.34-1.66-1.12-2.39-3.06-2.1-4.72.69-9.55.81-14.23,1.71C98.4,270.18,92.2,271.89,86,273.37Z" transform="translate(-2.01 -3.22)"/><path class="cls-2" d="M155.25,507l.71-.38c-4.36-.53-9.17-.63-13.72-1.78a57.66,57.66,0,0,1-13.36-5.22,81.71,81.71,0,0,1-25.74-22c-6.26-8.11-11.92-16.7-17.55-25.58,17.55-.91,34.15-4.66,50.8-9.8L159.69,506l-4.13,1.51A1.11,1.11,0,0,0,155.25,507Z" transform="translate(-2.01 -3.22)"/><path class="cls-2" d="M169.13,502.53l-23-62.93,40.6-22.17c.56,2.56,1.38,5.67,1.9,8.83,2.07,12.72,2.74,25.49.89,38.28s-5.45,24.87-15.12,34.25c-.22.22-.13.76-.18,1.16l-1,1.07Z" transform="translate(-2.01 -3.22)"/><path class="cls-2" d="M49.31,204.07c7.32,20,14.56,40.08,22,60,1.13,3,.38,4.49-2.19,5.52a122.56,122.56,0,0,0-30.38,17.55c-1.89,1.49-2.66.31-3-1.33-1.85-8.71-4.19-17.37-5.31-26.18a73.79,73.79,0,0,1,3-33C35.74,220,38.79,213.73,44,208.77a9.66,9.66,0,0,0,1.39-2.56l1-.52.37.22,0-.06-.38-.19a1.52,1.52,0,0,1-.09-.51Z" transform="translate(-2.01 -3.22)"/><path class="cls-2" d="M63.12,199.76c.4.3.75.8,1.18.87,14.18,2.28,24.2,11.06,33.11,21.41a103.51,103.51,0,0,1,18.46,30.53c.29.76.9,1.39,1.26,2.13s.56,1.48.84,2.25c-6.89,1.11-13.44,2-19.94,3.28a102.28,102.28,0,0,0-11.11,3c-4.44,1.38-4.82,1.28-6.37-2.94q-10.22-28-20.47-55.92a26.05,26.05,0,0,0-1.92-3.51l3.53-1.3.92.3A.84.84,0,0,1,63.12,199.76Z" transform="translate(-2.01 -3.22)"/><path class="cls-1" d="M62.61,199.84l-.92-.3.59-.21A1.6,1.6,0,0,0,62.61,199.84Z" transform="translate(-2.01 -3.22)"/><path class="cls-3" d="M195.14,485.77c.37-1.9.61-3.84,1.15-5.7A113,113,0,0,0,199.48,434c-.93-7.28-2.63-14.46-3.77-21.73-.21-1.34.1-3.37,1-4.2,10-9.25,18.36-19.6,23.33-32.44a4.28,4.28,0,0,1,.74-1c2,6.33,4.74,12.54,5.89,19,5.84,32.91-2.7,61.8-25.32,86.44C199.46,482.16,197.22,483.89,195.14,485.77Z" transform="translate(-2.01 -3.22)"/><path class="cls-2" d="M213.34,360a51,51,0,0,1-5.91,19.56c-3.86,7.14-9.17,13.09-15.41,19.2-8.23-24.19-20.21-45.74-38-64.5l24.47-8.94C186,331.62,194,337.56,201,344.39,205.76,348.94,209.28,354.74,213.34,360Z" transform="translate(-2.01 -3.22)"/><path class="cls-3" d="M158.9,263.65c-5.76-1.72-11.47-3.62-17.29-5.1a35.53,35.53,0,0,0-9.3-1.09c-3.1.06-4.53-1.29-5.46-4a120.45,120.45,0,0,0-21.44-37.37,84.19,84.19,0,0,0-18.34-16.8,6.57,6.57,0,0,1-1.17-1.38c7.62-.1,14.92,1.72,21.95,4.37,20.44,7.68,35.82,21.14,44.75,41.22C155.44,249.9,156.84,256.92,158.9,263.65Z" transform="translate(-2.01 -3.22)"/><path class="cls-3" d="M171.23,317.07c-6.95,2.6-13.88,5.25-20.87,7.74a2.72,2.72,0,0,1-2.42-.91,64.42,64.42,0,0,1-4.21-8,118.2,118.2,0,0,1-8.5-32.83c-.46-4-1.68-7.9-2.51-11.86-.25-1.19-.33-2.42-.55-4,10.27,1.08,19.89,2.82,27.92,9.41.48,6.2.61,12.46,1.51,18.6C162.78,303.31,166.78,310.33,171.23,317.07Z" transform="translate(-2.01 -3.22)"/><path class="cls-2" d="M118.41,393.07c4.45,12.18,8.83,24.38,13.41,36.51,1,2.54.71,3.73-2,4.48-15.17,4.13-30.46,7.48-46.28,7.68-1.77,0-2.85-.23-3.58-2.1-6.06-15.48-10.78-31.32-12-47.95-.6-8-.37-16-.35-24a3.23,3.23,0,0,1,1.75-2.34c10.67-4,21.4-7.85,32.07-11.85,2.18-.82,2.7.23,3.31,1.9Q111.49,374.23,118.41,393.07Z" transform="translate(-2.01 -3.22)"/><path class="cls-2" d="M127.73,389.31c-4.52-12.38-9-24.78-13.62-37.12-.87-2.3-.51-3.27,1.86-4.09,8.8-3.07,17.49-6.4,26.28-9.47,1-.34,2.86-.14,3.4.54,6.45,8.17,13.08,16.23,18.93,24.81a130.3,130.3,0,0,1,10.17,18.88c3.11,6.71,5.49,13.75,8.33,20.58.81,1.95.3,3-1.28,4.15-10.29,7.28-20.88,14-32.65,18.72a40.82,40.82,0,0,0-4.15,2.15c-2,1.06-2.89.32-3.62-1.71C136.89,414.25,132.29,401.79,127.73,389.31Z" transform="translate(-2.01 -3.22)"/><path class="cls-2" d="M66.28,355.46c-1.61-5.3-3.07-10.27-4.62-15.2-3.07-9.73-8.79-18.06-14-26.67-2.47-4.06-4.25-8.53-6.42-12.78a2.54,2.54,0,0,1,.95-3.71c5.73-3.92,11.33-8.07,17.23-11.73,4.31-2.66,9-4.7,13.53-7a30.63,30.63,0,0,1,3-1.1c.51,1.18,1,2.17,1.37,3.21,7.26,19.82,14.46,39.67,21.81,59.46.94,2.54.63,3.59-2,4.51-9.39,3.24-18.67,6.76-28,10.16C68.15,354.94,67.25,355.17,66.28,355.46Z" transform="translate(-2.01 -3.22)"/><path class="cls-2" d="M86,273.37c6.22-1.48,12.42-3.19,18.71-4.39,4.68-.9,9.51-1,14.23-1.71,1.94-.29,2.72.44,3.06,2.1,1.56,7.52,3.25,15,4.61,22.56,1.85,10.28,4.13,20.39,9.11,29.69.93,1.74,1.7,3.56,2.6,5.32.76,1.46.36,2.26-1.19,2.82q-12.69,4.58-25.35,9.27c-1.44.53-2.3.38-2.87-1.22q-11.46-31.56-23-63.11A6.38,6.38,0,0,1,86,273.37Z" transform="translate(-2.01 -3.22)"/><path class="cls-1" d="M46.45,205.66l.38.19,0,.06-.37-.22Z" transform="translate(-2.01 -3.22)"/><path class="cls-1" d="M280.87,500.82c-28.78-10-51.91-27.75-69.83-52.12-24.25-33-33.78-70.18-28.58-110.72,4.81-37.46,21.78-68.89,50-94,11.5-10.25,21.31-21.59,27.83-35.7,7.35-15.93,9.31-32.51,7.41-49.8-5.61-51.07,12.72-91.55,55-120.53,23.86-16.35,50.93-22,79.7-19.4a23.37,23.37,0,0,1,3.31.79c-1.34.71-2.62,1.83-4,2.05-11,1.73-20.48,7-29.19,13.59a114.61,114.61,0,0,0-33,39.55c-6.34,12.26-11,25.39-16.3,38.17-1,2.4-1.05,4.59,2.67,4.35a189.74,189.74,0,0,1,54.33,4.35c4.2,1,6.46-.28,7.67-5.13,8-32.13,16.46-64.16,24.76-96.22l14.16,3.67a40.7,40.7,0,0,1-.64,6.18Q414.6,74.66,403,119.42c-1.75,6.77-1.35,7.23,5.55,9.39a158.06,158.06,0,0,1,16.84,6c9.4,4.14,18.6,8.75,28.39,13.4a36.08,36.08,0,0,0,.9-3.62c.2-1.26,0-2.61.28-3.84a160.64,160.64,0,0,0,3.31-55.31c-2.27-21.1-7.33-41.16-23.45-56.59-.48-.47-.5-1.42-.74-2.15a87.81,87.81,0,0,1,30.74,17.73,10.65,10.65,0,0,0,.29,2.8,131,131,0,0,1,8.63,37.66c1.93,22.53.55,44.83-5.54,66.7-1.19,4.27-.55,7.26,3.47,9.92a54.84,54.84,0,0,1,10.93,9.58c6.13,7,11.76,14.5,17.6,21.79l-9.9,17.62c-4.47-15.5-15.24-26.21-27.41-36.65-1.16,2.26-2.13,3.91-2.87,5.65-2.43,5.79-4.31,11.86-7.24,17.38a183.25,183.25,0,0,0-18.09,49.47,99.64,99.64,0,0,0-1.63,13.9,4.2,4.2,0,0,0,2.28,3.29c11.14,3,22.34,5.71,33.52,8.51l2,16.91L431.63,278.8c6.24,39.7,2.55,77.82-8.26,116,13.37-2.3,25.4-5.22,36.63-11A78.84,78.84,0,0,0,484.81,364q-1.69,12.65-3.4,25.3a6.71,6.71,0,0,0-1.82.6c-17.68,12-37.53,17.87-58.45,20.91-1.87.27-4.06,2.59-5,4.49-4.94,10.29-9.1,21-14.34,31.11-11.17,21.61-25.78,40.62-44.72,56.12-2.33,1.9-4.35,4.17-6.51,6.28-13.11,2.44-26.19,2-39.26-.33.41-.46.78-1.25,1.26-1.33,20.62-3.47,35.89-15.73,49.53-30.45s24.06-31.65,32.62-49.74c2.12-4.49,3.82-9.19,5.37-13l-71.48-7.45L302.55,507.34l-15.11-3.91,26.42-102.07c-25.81-8.11-50.35-18-73.59-32.28-.64,16.33-1,32.3-.12,48.2a127.29,127.29,0,0,0,13.5,50.85,90,90,0,0,0,12.49,18.44c4.79,5.49,10.86,9.87,16,14.38Zm53.37-178.18q7.81-30.18,15.66-60.36c.7-2.68,1-4.47-2.56-5.35-17.17-4.29-34.27-8.86-51.45-13.13a5,5,0,0,0-4.31,1.45c-7.09,10.23-14.49,20.31-20.75,31.05-13.07,22.38-21,46.79-26.9,71.93-.72,3,.45,4.3,2.73,5.84,20.41,13.7,42.91,22.9,66,31,4.19,1.48,5.57.18,6.58-3.92C324,361.6,329.19,342.14,334.24,322.64Zm15.23,3.41c-5.17,20-10.28,40-15.57,59.92-.86,3.23-.35,5,3.13,5.37a63.8,63.8,0,0,1,7.2.91c19.19,4.39,38.68,5.1,58.26,4.85,3,0,4.62-1,5.3-4.16,2.39-11.25,5.56-22.36,7.5-33.67,1.89-10.94,3.59-22.06,3.64-33.11.09-16.14-1.27-32.29-2.32-48.42-.09-1.34-2.31-3.26-3.87-3.69-13.95-3.82-28-7.23-41.95-11.07-3.78-1-5.08-.11-6,3.58C359.82,286.42,354.6,306.22,349.47,326.05Zm-48.73-97.48c1.51.48,2.86,1,4.24,1.34,14.93,3.89,29.9,7.58,44.76,11.71,4.23,1.18,5.56.12,6.59-4,8.06-31.79,16.35-63.52,24.55-95.27.43-1.66.7-3.36,1.09-5.3a46.88,46.88,0,0,0-4.75-1.21c-7.82-1.08-15.62-2.61-23.47-3-10.77-.53-21.58-.17-32.38-.21-2.68,0-4.12,1.14-4.49,3.91-1,7.34-2.63,14.64-3.05,22-.89,15.62-.93,31.32-5.59,46.48C305.88,212.74,303.37,220.37,300.74,228.57ZM398.33,141c-.87,1.14-1.16,1.36-1.24,1.65q-13.14,50.48-26.3,101c-.67,2.55.29,3.49,2.61,4.08q20.31,5.16,40.59,10.51c2.47.65,3.68,0,4-2.56.39-3,1-6,1.36-9.08,1.83-16.3,7.84-31.24,14.54-46,4.92-10.86,9.36-21.93,14-32.91,1-2.43.68-4-2-5.39-6.66-3.28-12.94-7.38-19.71-10.37C417,147.84,407.6,144.55,398.33,141Z" transform="translate(-2.01 -3.22)"/><path class="cls-2" d="M280.87,500.82l1.24.13c-5.11-4.51-11.18-8.89-16-14.38a90,90,0,0,1-12.49-18.44,127.29,127.29,0,0,1-13.5-50.85c-.85-15.9-.52-31.87.12-48.2,23.24,14.32,47.78,24.17,73.59,32.28L287.44,503.43l-6.61-1.72A1.79,1.79,0,0,0,280.87,500.82Z" transform="translate(-2.01 -3.22)"/><path class="cls-2" d="M302.55,507.34l26.08-100.76L400.11,414c-1.55,3.78-3.25,8.48-5.37,13-8.56,18.09-19,35-32.62,49.74s-28.91,27-49.53,30.45c-.48.08-.85.87-1.26,1.33l-2.17.53Z" transform="translate(-2.01 -3.22)"/><path class="cls-2" d="M412.57,20c-8.3,32.06-16.73,64.09-24.76,96.22-1.21,4.85-3.47,6.08-7.67,5.13A189.74,189.74,0,0,0,325.81,117c-3.72.24-3.67-2-2.67-4.35,5.31-12.78,10-25.91,16.3-38.17a114.61,114.61,0,0,1,33-39.55c8.71-6.54,18.14-11.86,29.19-13.59,1.42-.22,2.7-1.34,4-2.05l1.76.24.28.6.09-.05-.31-.57a1.81,1.81,0,0,1,.34-.73Z" transform="translate(-2.01 -3.22)"/><path class="cls-2" d="M434,26.68c.24.73.26,1.68.74,2.15C450.89,44.26,456,64.32,458.22,85.42a160.64,160.64,0,0,1-3.31,55.31c-.3,1.23-.08,2.58-.28,3.84a36.08,36.08,0,0,1-.9,3.62c-9.79-4.65-19-9.26-28.39-13.4a158.06,158.06,0,0,0-16.84-6c-6.9-2.16-7.3-2.62-5.55-9.39q11.6-44.78,23.14-89.56a40.7,40.7,0,0,0,.64-6.18l5.67,1.46.91,1.2A1.28,1.28,0,0,1,434,26.68Z" transform="translate(-2.01 -3.22)"/><path class="cls-1" d="M433.31,26.34l-.91-1.2.94.25A2.17,2.17,0,0,0,433.31,26.34Z" transform="translate(-2.01 -3.22)"/><path class="cls-3" d="M350.59,508.85c2.16-2.11,4.18-4.38,6.51-6.28,18.94-15.5,33.55-34.51,44.72-56.12,5.24-10.13,9.4-20.82,14.34-31.11.92-1.9,3.11-4.22,5-4.49,20.92-3,40.77-8.87,58.45-20.91a6.71,6.71,0,0,1,1.82-.6c-3,9.87-5,20.22-9.26,29.53-21.56,47.23-57.94,76.64-108.61,88.2C359.31,508,354.91,508.27,350.59,508.85Z" transform="translate(-2.01 -3.22)"/><path class="cls-2" d="M484.81,364A78.84,78.84,0,0,1,460,383.84c-11.23,5.74-23.26,8.66-36.63,11,10.81-38.18,14.5-76.3,8.26-116l39.17,10.14c4.11,14.75,9,29.35,12,44.32C484.86,343.24,484.24,353.76,484.81,364Z" transform="translate(-2.01 -3.22)"/><path class="cls-3" d="M500.15,192.86c-5.84-7.29-11.47-14.75-17.6-21.79a54.84,54.84,0,0,0-10.93-9.58c-4-2.66-4.66-5.65-3.47-9.92,6.09-21.87,7.47-44.17,5.54-66.7a131,131,0,0,0-8.63-37.66,10.65,10.65,0,0,1-.29-2.8c9.84,6.6,17.57,15.37,24.23,25,19.35,27.86,27.16,58.63,20.86,92.19C507.86,172.22,503.46,182.43,500.15,192.86Z" transform="translate(-2.01 -3.22)"/><path class="cls-3" d="M468.81,272c-11.18-2.8-22.38-5.53-33.52-8.51a4.2,4.2,0,0,1-2.28-3.29,99.64,99.64,0,0,1,1.63-13.9,183.25,183.25,0,0,1,18.09-49.47c2.93-5.52,4.81-11.59,7.24-17.38.74-1.74,1.71-3.39,2.87-5.65C475,184.27,485.78,195,490.25,210.48,485.38,218.84,480,227,475.76,235.6,470.14,247,469.07,259.49,468.81,272Z" transform="translate(-2.01 -3.22)"/><path class="cls-2" d="M334.24,322.64c-5.05,19.5-10.21,39-15.05,58.51-1,4.1-2.39,5.4-6.58,3.92-23-8.1-45.54-17.3-66-31-2.28-1.54-3.45-2.81-2.73-5.84,5.91-25.14,13.83-49.55,26.9-71.93,6.26-10.74,13.66-20.82,20.75-31.05a5,5,0,0,1,4.31-1.45c17.18,4.27,34.28,8.84,51.45,13.13,3.51.88,3.26,2.67,2.56,5.35Q342,292.45,334.24,322.64Z" transform="translate(-2.01 -3.22)"/><path class="cls-2" d="M349.47,326.05c5.13-19.83,10.35-39.63,15.32-59.49.92-3.69,2.22-4.62,6-3.58,13.94,3.84,28,7.25,41.95,11.07,1.56.43,3.78,2.35,3.87,3.69,1.05,16.13,2.41,32.28,2.32,48.42-.05,11-1.75,22.17-3.64,33.11-1.94,11.31-5.11,22.42-7.5,33.67-.68,3.2-2.28,4.12-5.3,4.16-19.58.25-39.07-.46-58.26-4.85a63.8,63.8,0,0,0-7.2-.91c-3.48-.39-4-2.14-3.13-5.37C339.19,366,344.3,346,349.47,326.05Z" transform="translate(-2.01 -3.22)"/><path class="cls-2" d="M300.74,228.57c2.63-8.2,5.14-15.83,7.5-23.51,4.66-15.16,4.7-30.86,5.59-46.48.42-7.37,2.08-14.67,3.05-22,.37-2.77,1.81-3.92,4.49-3.91,10.8,0,21.61-.32,32.38.21,7.85.39,15.65,1.92,23.47,3a46.88,46.88,0,0,1,4.75,1.21c-.39,1.94-.66,3.64-1.09,5.3-8.2,31.75-16.49,63.48-24.55,95.27-1,4.09-2.36,5.15-6.59,4-14.86-4.13-29.83-7.82-44.76-11.71C303.6,229.55,302.25,229.05,300.74,228.57Z" transform="translate(-2.01 -3.22)"/><path class="cls-2" d="M398.33,141c9.27,3.58,18.7,6.87,27.81,10.88,6.77,3,13.05,7.09,19.71,10.37,2.73,1.35,3.08,3,2,5.39-4.64,11-9.08,22-14,32.91-6.7,14.77-12.71,29.71-14.54,46-.34,3-1,6.05-1.36,9.08-.33,2.54-1.54,3.21-4,2.56q-20.28-5.36-40.59-10.51c-2.32-.59-3.28-1.53-2.61-4.08q13.2-50.47,26.3-101C397.17,142.33,397.46,142.11,398.33,141Z" transform="translate(-2.01 -3.22)"/><path class="cls-1" d="M407.51,19.52l.31.57-.09.05-.28-.6Z" transform="translate(-2.01 -3.22)"/></svg>