<svg id="Layer_4" data-name="Layer 4" xmlns="http://www.w3.org/2000/svg" viewBox="0 0 318.87 512"><defs><style>.cls-1{fill:#fe9d5d;}.cls-2{fill:#bf692f;}.cls-3{fill:#b7591a;}.cls-4{fill:#fe8e43;}.cls-5{fill:#e0b62b;}.cls-6{fill:#e6c455;}.cls-7{fill:#e28e57;}.cls-8{fill:#ed8e50;}</style></defs><path class="cls-1" d="M418.26,385c0,27.76-.12,55.53.07,83.3.15,21.48-12.7,37.83-33.21,42.79-.41.1-.73.58-1.09.88H169a6,6,0,0,0-1.67-.92,39.43,39.43,0,0,1-25.27-15.33c-6.28-8.14-8.91-17.37-9-27.3-.2-27.8-.08-55.6-.08-83.4l0-.09c14.5,0,29-.15,43.49.18,3.05.07,6.31,1.51,9,3.09,6.29,3.67,12,8.42,18.5,11.64,22.07,11,45.35,15.35,70,12.25a122.64,122.64,0,0,0,54.79-20.87c3.63-2.48,6.35-6.45,11.91-6.38C366.61,385.18,392.44,385,418.26,385Z" transform="translate(-100.01)"/><path class="cls-2" d="M393,0c6.45,3.12,8.19,8.46,7.93,15.27-.36,9.57-.13,19.17-.15,28.75L151,44c-1.33,0-2.67,0-4,0-6.84-.36-11-4.67-11-11.51,0-10.82,0-21.65,0-32.47Z" transform="translate(-100.01)"/><path class="cls-3" d="M136,0c0,10.82,0,21.65,0,32.47,0,6.84,4.17,11.15,11,11.51,1.33.07,2.67,0,4,0l249.78,0c-.26,3.59-.67,7.18-.73,10.77-.09,5-2.67,8.17-8,9.3Q326.48,64,260.84,64q-49.92,0-99.82.1c-9.11,0-18.22-.12-27.33-.06a37,37,0,0,0-5.65.88l0,0c-8-1.62-10.25-3.78-10.39-11.78-.25-13.93,0-27.86-.1-41.8,0-5.13,2.58-8.54,6.48-11.32Z" transform="translate(-100.01)"/><path class="cls-4" d="M133,385.05c0,27.8-.12,55.6.08,83.4.07,9.93,2.7,19.16,9,27.3a39.43,39.43,0,0,0,25.27,15.33A6,6,0,0,1,169,512H133c-9.6-3.22-18.24-7.88-24.5-16.16-4.53-6-8.24-12.55-8.3-20.11-.23-30.24-.06-60.49,0-90.73Z" transform="translate(-100.01)"/><path class="cls-5" d="M133,385.05,100.18,385c-.06-9.31-.16-18.62-.16-27.93q0-76.57,0-153.15c0-2,.11-4,.17-6L133,198q0,93.48,0,187Z" transform="translate(-100.01)"/><path class="cls-4" d="M133,198l-32.81,0c0-16.63-.4-33.26,0-49.87.25-9.61,5.13-17.76,11.81-24.32,11-10.79,16.55-23.47,16-38.91-.23-6.64,0-13.3,0-19.95l0,0L161,65h0c0,9.31.1,18.62-.08,27.92a50.65,50.65,0,0,1-1.32,8.77c-1.81,9.08-7.77,15.72-13.92,21.92-8.87,9-12.4,19.8-12.63,31.91-.27,14.12-.05,28.25-.05,42.38Z" transform="translate(-100.01)"/><path class="cls-6" d="M133,385q0-93.48,0-187l0-.09c15,0,30,.09,45,0a9.34,9.34,0,0,0,4.64-1.21c8.5-5.15,16.53-11.24,25.42-15.58,23.43-11.45,48.26-13.75,73.82-9.33,19.4,3.36,36.59,11.58,52.18,23.49a12.08,12.08,0,0,0,6.72,2.57c25.83.16,51.66.07,77.5,0a45,45,0,0,1,.55,4.88q0,88.7,0,177.39a38.43,38.43,0,0,1-.59,4.85c-25.82,0-51.65.15-77.47-.16-5.56-.07-8.28,3.9-11.91,6.38a122.64,122.64,0,0,1-54.79,20.87c-24.68,3.1-48-1.28-70-12.25-6.49-3.22-12.21-8-18.5-11.64-2.72-1.58-6-3-9-3.09C162,384.81,147.54,385,133,385Zm192-44a38.34,38.34,0,0,0,4.42-27.92c-3.59-17.41-14.53-28.22-31.58-33-14.21-4-22.82-13.56-27.41-27.23-1.22-3.61-2.17-7.42-4-10.69C255,222,230.84,213.74,209,226c-15.09,7.93-22.55,24.9-20.82,40,2,17.78,11.89,30.62,29,35.63,16.92,5,27.3,15.2,31.68,31.71,4.77,18,27,32.48,45.44,28.88C307.91,359.52,318.33,353.19,325,341Z" transform="translate(-100.01)"/><path class="cls-1" d="M418.31,197.91c-25.84,0-51.67.12-77.5,0a12.08,12.08,0,0,1-6.72-2.57c-15.59-11.91-32.78-20.13-52.18-23.49-25.56-4.42-50.39-2.12-73.82,9.33-8.89,4.34-16.92,10.43-25.42,15.58a9.34,9.34,0,0,1-4.64,1.21c-15,.06-30,0-45,0,0-14.13-.22-28.26.05-42.38.23-12.11,3.76-22.94,12.63-31.91,6.15-6.2,12.11-12.84,13.92-21.92A50.65,50.65,0,0,0,161,92.92c.18-9.3.07-18.61.08-27.92H384.81c1.83,0,3.66.09,5.49.14.19,10.13.22,20.26.6,30.38.38,10,5.64,17.7,12.13,24.74s12.71,14.41,14.2,24.41a75,75,0,0,1,1,10.34C418.36,169.31,418.3,183.61,418.31,197.91Z" transform="translate(-100.01)"/><path class="cls-7" d="M390.3,65.15c-1.83-.05-3.66-.14-5.49-.14H161v-.88q49.9-.06,99.82-.1,65.63,0,131.26.08Z" transform="translate(-100.01)"/><path class="cls-8" d="M161,64.11V65l-33-.06a37,37,0,0,1,5.65-.88C142.8,64,151.91,64.07,161,64.11Z" transform="translate(-100.01)"/><path class="cls-1" d="M209,226c21.83-12.23,46-4,57.41,16.2,1.86,3.27,2.81,7.08,4,10.69,4.59,13.67,13.2,23.26,27.41,27.23,17.05,4.76,28,15.57,31.58,33A38.34,38.34,0,0,1,325,341c-7.32,1-14.64,2.76-22,2.84-11.63.13-21.33-5.29-28.09-14.46-4.23-5.72-7-12.65-9.68-19.35-4.79-12.2-13-20.58-25.34-24.95a114.15,114.15,0,0,1-13.34-5.34c-14.22-7.2-23.31-26.7-19.93-42.11C207.51,233.75,208.23,229.85,209,226Z" transform="translate(-100.01)"/><path class="cls-4" d="M209,226c-.78,3.88-1.5,7.78-2.35,11.65-3.38,15.41,5.71,34.91,19.93,42.11a114.15,114.15,0,0,0,13.34,5.34c12.37,4.37,20.55,12.75,25.34,24.95,2.64,6.7,5.45,13.63,9.68,19.35,6.76,9.17,16.46,14.59,28.09,14.46,7.34-.08,14.66-1.83,22-2.84-6.69,12.2-17.11,18.53-30.7,21.19-18.44,3.6-40.67-10.89-45.44-28.88-4.38-16.51-14.76-26.76-31.68-31.71-17.12-5-27-17.85-29-35.63C186.46,250.87,193.92,233.9,209,226Z" transform="translate(-100.01)"/></svg>