<svg xmlns="http://www.w3.org/2000/svg" xmlns:xlink="http://www.w3.org/1999/xlink" viewBox="0 0 512 512"><defs><style>.cls-1{fill:none;}.cls-2{fill:#e1b72b;}.cls-3{fill:#e7c555;}.cls-4{fill:url(#New_Pattern_Swatch_2);}</style><pattern id="New_Pattern_Swatch_2" data-name="New Pattern Swatch 2" width="512" height="512" patternTransform="translate(255.5 255.5) scale(0.5)" patternUnits="userSpaceOnUse" viewBox="0 0 512 512"><rect class="cls-1" width="512" height="512"/><path class="cls-1" d="M176.23,512h-83a79.75,79.75,0,0,0-6.62-11.24c-2.71-3.87-6.36-7.08-9.57-10.6l-9.26-7.27c-4.22-2.18-8.26-4.89-12.7-6.42-6.67-2.3-13.61-3.77-20.44-5.59l-7.19-3.17c-4.93-3-9.65-6.39-12.86-11.29-2.44-3.72-4.41-7.75-6.59-11.64l-4.69-8.06c-1.11-1.24-2.19-2.53-3.27-3.81V349.3a68.66,68.66,0,0,0,37.31,6.25A66.32,66.32,0,0,0,74.38,340a.79.79,0,0,1,.34.23c.75-.74,1.49-1.49,2.23-2.23L82,332.89l2.23-2.23.3-1a50.5,50.5,0,0,0,9.32-15.54c.78-1.85,1.72-3.65,2.32-5.56,7.27-22.85,4.09-44.2-9.64-63.82-2.71-3.87-6.36-7.08-9.57-10.6l-9.26-7.27c-4.22-2.18-8.26-4.89-12.7-6.42-6.67-2.3-13.61-3.77-20.44-5.59l-7.19-3.17c-4.93-3-9.65-6.39-12.86-11.29-2.44-3.72-4.41-7.75-6.59-11.64l-4.69-8.06c-1.11-1.24-2.19-2.53-3.27-3.81V93.3a68.66,68.66,0,0,0,37.31,6.25A66.32,66.32,0,0,0,74.38,84a.79.79,0,0,1,.34.23c.75-.74,1.49-1.49,2.23-2.23L82,76.89c.74-.74,1.49-1.48,2.23-2.23l.3-1a50.5,50.5,0,0,0,9.32-15.54c.78-1.85,1.72-3.65,2.32-5.56,5.9-18.55,4.92-36.12-3-52.58h83a66.6,66.6,0,0,0,14.94,9.08,42.55,42.55,0,0,1,18.06,14.61c4.09,5.89,6.3,12.45,7.68,19.42A68.3,68.3,0,0,0,242.6,85a68.81,68.81,0,0,0,50.71,14.56A66.32,66.32,0,0,0,330.38,84a.79.79,0,0,1,.34.23c.75-.74,1.49-1.49,2.23-2.23L338,76.89l2.23-2.23.3-1a50.5,50.5,0,0,0,9.32-15.54c.78-1.85,1.72-3.65,2.32-5.56,5.9-18.55,4.92-36.12-3-52.58h83a66.6,66.6,0,0,0,14.94,9.08,42.55,42.55,0,0,1,18.06,14.61c4.09,5.89,6.3,12.45,7.68,19.42A68.3,68.3,0,0,0,498.6,85,74.37,74.37,0,0,0,512,93.3v83.61a67.15,67.15,0,0,0-6.9-7.38c-11.87-10.36-25.93-14.46-41.54-13.29A43.11,43.11,0,0,0,448,160a42.54,42.54,0,0,0-15,8.62l-1.76,1.45-5.11,5-1.06,1.38-.38.45-.52.69a9.67,9.67,0,0,0-1.09,1.13c-7.77,10.83-11.86,22.91-10.94,36.23,1.62,23.59,13.43,40.35,35,50.07a42.55,42.55,0,0,1,18.06,14.61c4.09,5.89,6.3,12.45,7.68,19.42A68.3,68.3,0,0,0,498.6,341,74.37,74.37,0,0,0,512,349.3v83.61a67.15,67.15,0,0,0-6.9-7.38c-11.87-10.36-25.93-14.46-41.54-13.29A43.11,43.11,0,0,0,448,416a42.54,42.54,0,0,0-15,8.62l-1.76,1.45-5.11,5-1.06,1.38-.38.45-.52.69a9.67,9.67,0,0,0-1.09,1.13c-7.77,10.83-11.86,22.91-10.94,36.23,1.19,17.42,7.95,31.1,20.1,41h-83a79.75,79.75,0,0,0-6.62-11.24c-2.71-3.87-6.36-7.08-9.57-10.6l-9.26-7.27c-4.22-2.18-8.26-4.89-12.7-6.42-6.67-2.3-13.61-3.77-20.44-5.59l-7.19-3.17c-4.93-3-9.65-6.39-12.86-11.29-2.44-3.72-4.41-7.75-6.59-11.64l-4.69-8.06c-3.37-3.76-6.4-7.9-10.17-11.19-11.87-10.36-25.93-14.46-41.54-13.29A43.11,43.11,0,0,0,192,416a42.54,42.54,0,0,0-15,8.62l-1.76,1.45-5.11,5-1.06,1.38-.38.45-.52.69a9.67,9.67,0,0,0-1.09,1.13c-7.77,10.83-11.86,22.91-10.94,36.23C157.32,488.43,164.08,502.11,176.23,512Zm-20.1-297c1.62,23.59,13.43,40.35,35,50.07a42.55,42.55,0,0,1,18.06,14.61c4.09,5.89,6.3,12.45,7.68,19.42a70.36,70.36,0,0,0,76.4,56.44A66.32,66.32,0,0,0,330.38,340a.79.79,0,0,1,.34.23c.75-.74,1.49-1.49,2.23-2.23l5.09-5.09,2.23-2.23.3-1a50.5,50.5,0,0,0,9.32-15.54c.78-1.85,1.72-3.65,2.32-5.56,7.27-22.85,4.09-44.2-9.64-63.82-2.71-3.87-6.36-7.08-9.57-10.6l-9.26-7.27c-4.22-2.18-8.26-4.89-12.7-6.42-6.67-2.3-13.61-3.77-20.44-5.59l-7.19-3.17c-4.93-3-9.65-6.39-12.86-11.29-2.44-3.72-4.41-7.75-6.59-11.64l-4.69-8.06c-3.37-3.76-6.4-7.9-10.17-11.19-11.87-10.36-25.93-14.46-41.54-13.29A43.11,43.11,0,0,0,192,160a42.54,42.54,0,0,0-15,8.62l-1.76,1.45-5.11,5-1.06,1.38-.38.45-.52.69a9.67,9.67,0,0,0-1.09,1.13C159.3,189.61,155.21,201.69,156.13,215Z"/><path class="cls-2" d="M512,5V0h-5.08a2.33,2.33,0,0,1,.44.37Z"/><path class="cls-2" d="M465.23,23.69c4.09,5.89,6.3,12.45,7.68,19.42A68.3,68.3,0,0,0,498.6,85,74.37,74.37,0,0,0,512,93.3V57.92a109.81,109.81,0,0,1-17.22-22.48c-2.84-5.07-5.13-10.44-7.58-15.72a2.13,2.13,0,0,1,.49-1.86C493.42,12,499.21,6.29,505,.5a4.07,4.07,0,0,1,.57-.5H495.29L483.18,12.05a1.86,1.86,0,0,1-.44.19c-2.83-3.12-5.54-6.17-8.33-9.15A41.38,41.38,0,0,0,471.14,0H432.23a66.6,66.6,0,0,0,14.94,9.08A42.55,42.55,0,0,1,465.23,23.69Z"/><path class="cls-2" d="M487.69,17.86a2.13,2.13,0,0,0-.49,1.86c2.45,5.28,4.74,10.65,7.58,15.72A109.81,109.81,0,0,0,512,57.92V5L507.36.37a2.33,2.33,0,0,0-.44-.37h-1.38a4.07,4.07,0,0,0-.57.5C499.21,6.29,493.42,12,487.69,17.86Z"/><path class="cls-2" d="M482.74,12.24a1.86,1.86,0,0,0,.44-.19L495.29,0H471.14a41.38,41.38,0,0,1,3.27,3.09C477.2,6.07,479.91,9.12,482.74,12.24Z"/><path class="cls-2" d="M496.12,440.72c-2,1-3.34.53-4.76-.94A86.07,86.07,0,0,0,466.14,422a60.55,60.55,0,0,0-17-5.38A5.2,5.2,0,0,1,448,416a42.54,42.54,0,0,0-15,8.62c2.85-.46,5.68-1.14,8.54-1.34,7.53-.51,14.47,1.81,21.18,4.89a75.4,75.4,0,0,1,21.22,14.27c.42.41,1,.64,1.46,1a15.84,15.84,0,0,1,1.25,1.22c-4.12,2.79-8.1,5.37-11.95,8.14a72.25,72.25,0,0,0-6.32,5.29c-2.49,2.25-2.76,2.31-5,0l-32.11-32.08-5.11,5,32.28,32.3c2,2.05,1.91,2.24.14,4.56-4.27,5.62-8.43,11.32-12.55,17.05a50.69,50.69,0,0,0-2.8,5.1c-3.08-3.87-5.85-7.15-8.39-10.6a70,70,0,0,1-9.31-17.28c-3-8-4.24-16.18-2.15-24.64.32-1.31.55-2.64.82-4a9.67,9.67,0,0,0-1.09,1.13c-7.77,10.83-11.86,22.91-10.94,36.23,1.19,17.42,7.95,31.1,20.1,41h38.91c-4.07-3.47-8.67-6.22-13.1-9.22a85.54,85.54,0,0,1-8.14-6.59,2.36,2.36,0,0,1-.43-2.22c2.46-4.42,4.91-8.85,7.67-13.08,2-3,4.44-5.76,6.68-8.63.95-1.23,1.74-1.75,3.17-.3,10.85,11,21.79,21.85,32.7,32.76.77.76,1.56,1.39.38,2.54L495.29,512h10.25a1.11,1.11,0,0,1,1.38,0H512v-5.42a1.19,1.19,0,0,1,0-.83V495.28c-1.62,1.61-3.24,3.22-4.88,4.82-.32.31-1.25.13-1.84,0-.37-.1-.65-.59-1-.91L472.5,467.35l-1.88-1.88a60.55,60.55,0,0,1,5.19-4.55c4.82-3.35,9.79-6.5,14.64-9.81a1.52,1.52,0,0,1,2.44.36c3.33,4.48,6.73,8.9,9.95,13.45A95.53,95.53,0,0,0,512,476.33v-10.9a93.53,93.53,0,0,1-6.24-8.92c-1.51-2.46-3.48-4.63-5.21-6.95-.52-.7-.95-1.47-1.58-2.46a50.6,50.6,0,0,1,13-3v-6.9c-3.18.44-6.36.86-9.51,1.45A25.6,25.6,0,0,0,496.12,440.72Z"/><path class="cls-2" d="M425.49,462.26a70,70,0,0,0,9.31,17.28c2.54,3.45,5.31,6.73,8.39,10.6A50.69,50.69,0,0,1,446,485c4.12-5.73,8.28-11.43,12.55-17.05,1.77-2.32,1.9-2.51-.14-4.56l-32.28-32.3-1.06,1.38-.38.45-.52.69c-.27,1.33-.5,2.66-.82,4C421.25,446.08,422.53,454.25,425.49,462.26Z"/><path class="cls-2" d="M468.37,458.15a72.25,72.25,0,0,1,6.32-5.29c3.85-2.77,7.83-5.35,11.95-8.14a15.84,15.84,0,0,0-1.25-1.22c-.45-.38-1-.61-1.46-1a75.4,75.4,0,0,0-21.22-14.27c-6.71-3.08-13.65-5.4-21.18-4.89-2.86.2-5.69.88-8.54,1.34l-1.76,1.45,32.11,32.08C465.61,460.46,465.88,460.4,468.37,458.15Z"/><path class="cls-2" d="M505.1,425.53c-11.87-10.36-25.93-14.46-41.54-13.29A43.11,43.11,0,0,0,448,416a5.2,5.2,0,0,0,1.18.54,60.55,60.55,0,0,1,17,5.38,86.07,86.07,0,0,1,25.22,17.82c1.42,1.47,2.76,1.91,4.76.94a25.6,25.6,0,0,1,6.37-2.1c3.15-.59,6.33-1,9.51-1.45v-4.26A67.15,67.15,0,0,0,505.1,425.53Z"/><path class="cls-2" d="M500.55,449.56c1.73,2.32,3.7,4.49,5.21,6.95a93.53,93.53,0,0,0,6.24,8.92V444.07a50.6,50.6,0,0,0-13,3C499.6,448.09,500,448.86,500.55,449.56Z"/><path class="cls-2" d="M505.54,512h1.38A1.11,1.11,0,0,0,505.54,512Z"/><path class="cls-2" d="M512,506.58v-.83A1.19,1.19,0,0,0,512,506.58Z"/><path class="cls-2" d="M499.69,504.72c-10.91-10.91-21.85-21.8-32.7-32.76-1.43-1.45-2.22-.93-3.17.3-2.24,2.87-4.7,5.6-6.68,8.63-2.76,4.23-5.21,8.66-7.67,13.08a2.36,2.36,0,0,0,.43,2.22,85.54,85.54,0,0,0,8.14,6.59c4.43,3,9,5.75,13.1,9.22h24.15l4.78-4.74C501.25,506.11,500.46,505.48,499.69,504.72Z"/><path class="cls-2" d="M492.89,451.47a1.52,1.52,0,0,0-2.44-.36c-4.85,3.31-9.82,6.46-14.64,9.81a60.55,60.55,0,0,0-5.19,4.55l1.88,1.88,31.82,31.81c.31.32.59.81,1,.91.59.16,1.52.34,1.84,0,1.64-1.6,3.26-3.21,4.88-4.82V476.33a95.53,95.53,0,0,1-9.16-11.41C499.62,460.37,496.22,456,492.89,451.47Z"/><path class="cls-2" d="M76.81,491a3,3,0,0,1,.19-.87l-9.26-7.27a36.46,36.46,0,0,1,2.06,14.5A53.24,53.24,0,0,1,66.5,512H74A57.16,57.16,0,0,0,76.81,491Z"/><path class="cls-2" d="M8,444.78l-4.69-8.06L0,437.17v6.9A25.21,25.21,0,0,1,8,444.78Z"/><path class="cls-2" d="M0,506.58V512H5.13c-1.42-1.4-2.82-2.82-4.24-4.21A3.52,3.52,0,0,1,0,506.58Z"/><path class="cls-2" d="M34.6,470.88l-7.19-3.17c-3.73,3.79-7.44,7.61-11.23,11.34a1.94,1.94,0,0,1-1.84.13,45.51,45.51,0,0,1-5.15-3.9A79.91,79.91,0,0,1,0,465.43v10.9a46.47,46.47,0,0,0,5.58,5A24.78,24.78,0,0,1,9,484.17a2,2,0,0,1,.13,1.93Q4.61,490.74,0,495.28v10.47a3.37,3.37,0,0,1,.87-1.19c4.79-4.64,9.43-9.43,14.22-14.08a2.72,2.72,0,0,1,2.37-.68c6.66,3.36,13.4,6.6,19.8,10.41a93.65,93.65,0,0,1,12.31,9.2c1,.84,2,1.71,2.92,2.59H63.12c-12-12-25.59-21.55-41.72-27.92Z"/><path class="cls-2" d="M77,490.16a3,3,0,0,0-.19.87A57.16,57.16,0,0,1,74,512H93.19a79.75,79.75,0,0,0-6.62-11.24C83.86,496.89,80.21,493.68,77,490.16Z"/><path class="cls-2" d="M67.74,482.89c-4.22-2.18-8.26-4.89-12.7-6.42-6.67-2.3-13.61-3.77-20.44-5.59l-13.2,13.2C37.53,490.45,51.08,500,63.12,512H66.5a53.24,53.24,0,0,0,3.3-14.61A36.46,36.46,0,0,0,67.74,482.89Z"/><path class="cls-2" d="M0,432.91v4.26l3.27-.45C2.16,435.48,1.08,434.19,0,432.91Z"/><path class="cls-2" d="M9.19,475.28a45.51,45.51,0,0,0,5.15,3.9,1.94,1.94,0,0,0,1.84-.13c3.79-3.73,7.5-7.55,11.23-11.34-4.93-3-9.65-6.39-12.86-11.29-2.44-3.72-4.41-7.75-6.59-11.64a25.21,25.21,0,0,0-8-.71v21.36A79.91,79.91,0,0,0,9.19,475.28Z"/><path class="cls-2" d="M37.26,500.21c-6.4-3.81-13.14-7-19.8-10.41a2.72,2.72,0,0,0-2.37.68c-4.79,4.65-9.43,9.44-14.22,14.08A3.37,3.37,0,0,0,0,505.75v.83a3.52,3.52,0,0,0,.89,1.21c1.42,1.39,2.82,2.81,4.24,4.21H52.49c-1-.88-1.93-1.75-2.92-2.59A93.65,93.65,0,0,0,37.26,500.21Z"/><path class="cls-2" d="M9.12,486.1A2,2,0,0,0,9,484.17a24.78,24.78,0,0,0-3.41-2.87,46.47,46.47,0,0,1-5.58-5v18.95Q4.59,490.74,9.12,486.1Z"/><path class="cls-2" d="M37.31,99.55A66.32,66.32,0,0,0,74.38,84l.34-.46c-3,1-6.15,2.36-9.46,3A41.42,41.42,0,0,1,55,87.15a58.62,58.62,0,0,1-23.38-6.53c-6.52-3.39-12.79-7.25-19.13-11.33C23.63,63.4,33.29,56,42.56,47.59L77,82,82,76.89,48.09,42.94c6.61-9,13-17.67,19.69-26.68,1.14,1.5,2.61,3.28,3.9,5.18A89.56,89.56,0,0,1,83.82,46c2.66,8.87,4,17.81.52,26.83-.09.21.14.54.23.81a50.5,50.5,0,0,0,9.32-15.54c-.33-1.35-.76-2.68-1-4A81,81,0,0,0,81.07,23.17c-2.8-4.45-6.07-8.61-9-13a3.89,3.89,0,0,1-.62-3C72.41,4.79,73.28,2.41,74,0H66.5c-.29.83-.6,1.67-.92,2.52Q64.36,1.24,63.12,0H52.49c2.94,2.71,5.76,5.57,8.71,8.27a2.13,2.13,0,0,1,.41,3.09c-4.49,7.84-9.33,15.42-15.57,22A31.06,31.06,0,0,0,44,36c-1,1.3-1.79,1.08-2.87,0-6.75-6.83-13.55-13.6-20.34-20.38L10.86,5.69C9,3.79,7,1.9,5.13,0H0V5Q18.39,23.46,36.81,41.89a4.42,4.42,0,0,1,.49.93c-3.17,2.7-6.08,5.64-9.43,7.93-6.2,4.23-12.69,8-19,12.1C6.92,64.1,5.71,63.6,4.1,62,2.71,60.69,1.35,59.31,0,57.92V93.3A68.66,68.66,0,0,0,37.31,99.55Z"/><path class="cls-2" d="M12.5,69.29c6.34,4.08,12.61,7.94,19.13,11.33A58.62,58.62,0,0,0,55,87.15a41.42,41.42,0,0,0,10.25-.64c3.31-.63,6.47-2,9.46-3l-.34.46a.79.79,0,0,1,.34.23c.75-.74,1.49-1.49,2.23-2.23L42.56,47.59C33.29,56,23.63,63.4,12.5,69.29Z"/><path class="cls-2" d="M84.34,72.87c3.44-9,2.14-18-.52-26.83a89.56,89.56,0,0,0-12.14-24.6c-1.29-1.9-2.76-3.68-3.9-5.18C61.14,25.27,54.7,34,48.09,42.94l34,34c.74-.74,1.49-1.48,2.23-2.23l.3-1C84.48,73.41,84.25,73.08,84.34,72.87Z"/><path class="cls-2" d="M72.06,10.19c2.94,4.37,6.21,8.53,9,13A81,81,0,0,1,92.92,54.09c.21,1.37.64,2.7,1,4,.78-1.85,1.72-3.65,2.32-5.56,5.9-18.55,4.92-36.12-3-52.58H74c-.75,2.41-1.62,4.79-2.59,7.16A3.89,3.89,0,0,0,72.06,10.19Z"/><path class="cls-2" d="M65.58,2.52c.32-.85.63-1.69.92-2.52H63.12Q64.37,1.24,65.58,2.52Z"/><path class="cls-2" d="M4.1,62c1.61,1.56,2.82,2.06,4.77.81,6.31-4.06,12.8-7.87,19-12.1,3.35-2.29,6.26-5.23,9.43-7.93a4.42,4.42,0,0,0-.49-.93Q18.4,23.46,0,5V57.92C1.35,59.31,2.71,60.69,4.1,62Z"/><path class="cls-2" d="M20.79,15.64C27.58,22.42,34.38,29.19,41.13,36c1.08,1.09,1.9,1.31,2.87,0a31.06,31.06,0,0,1,2-2.65c6.24-6.6,11.08-14.18,15.57-22a2.13,2.13,0,0,0-.41-3.09c-3-2.7-5.77-5.56-8.71-8.27H5.13C7,1.9,9,3.79,10.86,5.69Z"/><path class="cls-2" d="M8,188.78l-4.69-8.06q-1.63.24-3.27.45v6.9A25.21,25.21,0,0,1,8,188.78Z"/><path class="cls-2" d="M37.31,355.55A66.32,66.32,0,0,0,74.38,340l.34-.46c-3,1-6.15,2.36-9.46,3a41.42,41.42,0,0,1-10.25.64,58.62,58.62,0,0,1-23.38-6.53c-6.52-3.39-12.79-7.25-19.13-11.33,11.13-5.89,20.79-13.34,30.06-21.7L77,338,82,332.89,48.09,298.94c6.61-9,13-17.67,19.69-26.68,1.14,1.5,2.61,3.28,3.9,5.18A89.56,89.56,0,0,1,83.82,302c2.66,8.87,4,17.81.52,26.83-.09.21.14.54.23.81a50.5,50.5,0,0,0,9.32-15.54c-.33-1.35-.76-2.68-1-4.05a81,81,0,0,0-11.85-30.92c-2.8-4.45-6.07-8.61-9-13a3.89,3.89,0,0,1-.62-3c3.69-9,6-18.29,5.37-28.13a3,3,0,0,1,.19-.87l-9.26-7.27a36.46,36.46,0,0,1,2.06,14.5c-.35,5.8-2,11.27-4.22,17.13-12.65-13.24-26.94-23.63-44.18-30.44l13.2-13.2-7.19-3.17c-3.73,3.79-7.44,7.61-11.23,11.34a1.94,1.94,0,0,1-1.84.13,45.51,45.51,0,0,1-5.15-3.9A79.91,79.91,0,0,1,0,209.43v10.9a46.47,46.47,0,0,0,5.58,5A24.78,24.78,0,0,1,9,228.17a2,2,0,0,1,.13,1.93Q4.61,234.74,0,239.28v10.47a3.37,3.37,0,0,1,.87-1.19c4.79-4.64,9.43-9.43,14.22-14.08a2.72,2.72,0,0,1,2.37-.68c6.66,3.36,13.4,6.6,19.8,10.41a93.65,93.65,0,0,1,12.31,9.2c4,3.42,7.71,7.28,11.63,10.86a2.13,2.13,0,0,1,.41,3.09c-4.49,7.84-9.33,15.42-15.57,22A31.06,31.06,0,0,0,44,292c-1,1.3-1.79,1.08-2.87,0-6.75-6.83-13.55-13.6-20.34-20.38C14.16,265,7.57,258.36.89,251.79A3.52,3.52,0,0,1,0,250.58V261q18.39,18.45,36.81,36.88a4.42,4.42,0,0,1,.49.93c-3.17,2.7-6.08,5.64-9.43,7.93-6.2,4.23-12.69,8-19,12.1-1.95,1.25-3.16.75-4.77-.81-1.39-1.35-2.75-2.73-4.1-4.12V349.3A68.66,68.66,0,0,0,37.31,355.55Z"/><path class="cls-2" d="M12.5,325.29c6.34,4.08,12.61,7.94,19.13,11.33A58.62,58.62,0,0,0,55,343.15a41.42,41.42,0,0,0,10.25-.64c3.31-.63,6.47-2,9.46-3l-.34.46a.79.79,0,0,1,.34.23c.75-.74,1.49-1.49,2.23-2.23L42.56,303.59C33.29,312,23.63,319.4,12.5,325.29Z"/><path class="cls-2" d="M84.34,328.87c3.44-9,2.14-18-.52-26.83a89.56,89.56,0,0,0-12.14-24.6c-1.29-1.9-2.76-3.68-3.9-5.18-6.64,9-13.08,17.72-19.69,26.68l34,33.95,2.23-2.23.3-1C84.48,329.41,84.25,329.08,84.34,328.87Z"/><path class="cls-2" d="M71.44,263.16a3.89,3.89,0,0,0,.62,3c2.94,4.37,6.21,8.53,9,13a81,81,0,0,1,11.85,30.92c.21,1.37.64,2.7,1,4.05.78-1.85,1.72-3.65,2.32-5.56,7.27-22.85,4.09-44.2-9.64-63.82-2.71-3.87-6.36-7.08-9.57-10.6a3,3,0,0,0-.19.87C77.46,244.87,75.13,254.13,71.44,263.16Z"/><path class="cls-2" d="M65.58,258.52c2.22-5.86,3.87-11.33,4.22-17.13a36.46,36.46,0,0,0-2.06-14.5c-4.22-2.18-8.26-4.89-12.7-6.42-6.67-2.3-13.61-3.77-20.44-5.59l-13.2,13.2C38.64,234.89,52.93,245.28,65.58,258.52Z"/><path class="cls-2" d="M0,176.91v4.26q1.64-.21,3.27-.45C2.16,179.48,1.08,178.19,0,176.91Z"/><path class="cls-2" d="M9.19,219.28a45.51,45.51,0,0,0,5.15,3.9,1.94,1.94,0,0,0,1.84-.13c3.79-3.73,7.5-7.55,11.23-11.34-4.93-3-9.65-6.39-12.86-11.29-2.44-3.72-4.41-7.75-6.59-11.64a25.21,25.21,0,0,0-8-.71v21.36A79.91,79.91,0,0,0,9.19,219.28Z"/><path class="cls-2" d="M4.1,318c1.61,1.56,2.82,2.06,4.77.81,6.31-4.06,12.8-7.87,19-12.1,3.35-2.29,6.26-5.23,9.43-7.93a4.42,4.42,0,0,0-.49-.93Q18.4,279.46,0,261v52.91C1.35,315.31,2.71,316.69,4.1,318Z"/><path class="cls-2" d="M20.79,271.64c6.79,6.78,13.59,13.55,20.34,20.38,1.08,1.09,1.9,1.31,2.87,0a31.06,31.06,0,0,1,2-2.65c6.24-6.6,11.08-14.18,15.57-22a2.13,2.13,0,0,0-.41-3.09c-3.92-3.58-7.59-7.44-11.63-10.86a93.65,93.65,0,0,0-12.31-9.2c-6.4-3.81-13.14-7.05-19.8-10.41a2.72,2.72,0,0,0-2.37.68c-4.79,4.65-9.43,9.44-14.22,14.08A3.37,3.37,0,0,0,0,249.75v.83a3.52,3.52,0,0,0,.89,1.21C7.57,258.36,14.16,265,20.79,271.64Z"/><path class="cls-2" d="M9.12,230.1A2,2,0,0,0,9,228.17a24.78,24.78,0,0,0-3.41-2.87,46.47,46.47,0,0,1-5.58-5v18.95Q4.59,234.74,9.12,230.1Z"/><path class="cls-2" d="M502.49,182.62c3.15-.59,6.33-1,9.51-1.45v6.9a50.6,50.6,0,0,0-13,3c.63,1,1.06,1.76,1.58,2.46,1.73,2.32,3.7,4.49,5.21,6.95a93.53,93.53,0,0,0,6.24,8.92v10.9a95.53,95.53,0,0,1-9.16-11.41c-3.22-4.55-6.62-9-9.95-13.45a1.52,1.52,0,0,0-2.44-.36c-4.85,3.31-9.82,6.46-14.64,9.81a60.55,60.55,0,0,0-5.19,4.55l1.88,1.88,31.82,31.81c.31.32.59.81,1,.91.59.16,1.52.34,1.84,0,1.64-1.6,3.26-3.21,4.88-4.82v10.47a1.19,1.19,0,0,0,0,.83V261l-4.64-4.64c-1-1-1.57-.7-2.39.13-5.76,5.79-11.55,11.54-17.28,17.36a2.13,2.13,0,0,0-.49,1.86c2.45,5.28,4.74,10.65,7.58,15.72A109.81,109.81,0,0,0,512,313.92V349.3A74.37,74.37,0,0,1,498.6,341a68.3,68.3,0,0,1-25.69-41.88c-1.38-7-3.59-13.53-7.68-19.42a42.55,42.55,0,0,0-18.06-14.61c-21.61-9.72-33.42-26.48-35-50.07-.92-13.32,3.17-25.4,10.94-36.23a9.67,9.67,0,0,1,1.09-1.13c-.27,1.33-.5,2.66-.82,4-2.09,8.46-.81,16.63,2.15,24.64a70,70,0,0,0,9.31,17.28c2.54,3.45,5.31,6.73,8.39,10.6A50.69,50.69,0,0,1,446,229c4.12-5.73,8.28-11.43,12.55-17,1.77-2.32,1.9-2.51-.14-4.56l-32.28-32.3,5.11-5,32.11,32.08c2.27,2.27,2.54,2.21,5,0a72.25,72.25,0,0,1,6.32-5.29c3.85-2.77,7.83-5.35,11.95-8.14a15.84,15.84,0,0,0-1.25-1.22c-.45-.38-1-.61-1.46-1a75.4,75.4,0,0,0-21.22-14.27c-6.71-3.08-13.65-5.4-21.18-4.89-2.86.2-5.69.88-8.54,1.34A42.54,42.54,0,0,1,448,160a5.2,5.2,0,0,0,1.18.54,60.55,60.55,0,0,1,17,5.38,86.07,86.07,0,0,1,25.22,17.82c1.42,1.47,2.76,1.91,4.76.94A25.6,25.6,0,0,1,502.49,182.62ZM467,216c-1.43-1.45-2.22-.93-3.17.3-2.24,2.87-4.7,5.6-6.68,8.63-2.76,4.23-5.21,8.66-7.67,13.08a2.36,2.36,0,0,0,.43,2.22,85.54,85.54,0,0,0,8.14,6.59c5.66,3.84,11.63,7.25,16.37,12.31,2.79,3,5.5,6,8.33,9.15a1.86,1.86,0,0,0,.44-.19c5.63-5.6,11.24-11.22,16.89-16.79,1.18-1.15.39-1.78-.38-2.54C488.78,237.81,477.84,226.92,467,216Z"/><path class="cls-2" d="M425.49,206.26a70,70,0,0,0,9.31,17.28c2.54,3.45,5.31,6.73,8.39,10.6A50.69,50.69,0,0,1,446,229c4.12-5.73,8.28-11.43,12.55-17,1.77-2.32,1.9-2.51-.14-4.56l-32.28-32.3-1.06,1.38-.38.45-.52.69c-.27,1.33-.5,2.66-.82,4C421.25,190.08,422.53,198.25,425.49,206.26Z"/><path class="cls-2" d="M468.37,202.15a72.25,72.25,0,0,1,6.32-5.29c3.85-2.77,7.83-5.35,11.95-8.14a15.84,15.84,0,0,0-1.25-1.22c-.45-.38-1-.61-1.46-1a75.4,75.4,0,0,0-21.22-14.27c-6.71-3.08-13.65-5.4-21.18-4.89-2.86.2-5.69.88-8.54,1.34l-1.76,1.45,32.11,32.08C465.61,204.46,465.88,204.4,468.37,202.15Z"/><path class="cls-2" d="M505.1,169.53c-11.87-10.36-25.93-14.46-41.54-13.29A43.11,43.11,0,0,0,448,160a5.2,5.2,0,0,0,1.18.54,60.55,60.55,0,0,1,17,5.38,86.07,86.07,0,0,1,25.22,17.82c1.42,1.47,2.76,1.91,4.76.94a25.6,25.6,0,0,1,6.37-2.1c3.15-.59,6.33-1,9.51-1.45v-4.26A67.15,67.15,0,0,0,505.1,169.53Z"/><path class="cls-2" d="M500.55,193.56c1.73,2.32,3.7,4.49,5.21,6.95a93.53,93.53,0,0,0,6.24,8.92V188.07a50.6,50.6,0,0,0-13,3C499.6,192.09,500,192.86,500.55,193.56Z"/><path class="cls-2" d="M505,256.5c-5.76,5.79-11.55,11.54-17.28,17.36a2.13,2.13,0,0,0-.49,1.86c2.45,5.28,4.74,10.65,7.58,15.72A109.81,109.81,0,0,0,512,313.92V261l-4.64-4.64C506.4,255.4,505.79,255.67,505,256.5Z"/><path class="cls-2" d="M512,250.58v-.83A1.19,1.19,0,0,0,512,250.58Z"/><path class="cls-2" d="M463.82,216.26c-2.24,2.87-4.7,5.6-6.68,8.63-2.76,4.23-5.21,8.66-7.67,13.08a2.36,2.36,0,0,0,.43,2.22,85.54,85.54,0,0,0,8.14,6.59c5.66,3.84,11.63,7.25,16.37,12.31,2.79,3,5.5,6,8.33,9.15a1.86,1.86,0,0,0,.44-.19c5.63-5.6,11.24-11.22,16.89-16.79,1.18-1.15.39-1.78-.38-2.54-10.91-10.91-21.85-21.8-32.7-32.76C465.56,214.51,464.77,215,463.82,216.26Z"/><path class="cls-2" d="M492.89,195.47a1.52,1.52,0,0,0-2.44-.36c-4.85,3.31-9.82,6.46-14.64,9.81a60.55,60.55,0,0,0-5.19,4.55l1.88,1.88,31.82,31.81c.31.32.59.81,1,.91.59.16,1.52.34,1.84,0,1.64-1.6,3.26-3.21,4.88-4.82V220.33a95.53,95.53,0,0,1-9.16-11.41C499.62,204.37,496.22,200,492.89,195.47Z"/><path class="cls-2" d="M209.23,23.69c4.09,5.89,6.3,12.45,7.68,19.42A68.3,68.3,0,0,0,242.6,85a68.81,68.81,0,0,0,50.71,14.56A66.32,66.32,0,0,0,330.38,84l.34-.46c-3,1-6.15,2.36-9.46,3a41.42,41.42,0,0,1-10.25.64,58.62,58.62,0,0,1-23.38-6.53c-6.52-3.39-12.79-7.25-19.13-11.33,11.13-5.89,20.79-13.34,30.06-21.7L333,82,338,76.89l-34-33.95c6.61-9,13.05-17.67,19.69-26.68,1.14,1.5,2.61,3.28,3.9,5.18A89.56,89.56,0,0,1,339.82,46c2.66,8.87,4,17.81.52,26.83-.09.21.14.54.23.81a50.5,50.5,0,0,0,9.32-15.54c-.33-1.35-.76-2.68-1-4a81,81,0,0,0-11.85-30.92c-2.8-4.45-6.07-8.61-9-13a3.89,3.89,0,0,1-.62-3c1-2.37,1.84-4.75,2.59-7.16H322.5c-.29.83-.6,1.67-.92,2.52Q320.37,1.24,319.12,0H308.49c2.94,2.71,5.76,5.57,8.71,8.27a2.13,2.13,0,0,1,.41,3.09c-4.49,7.84-9.33,15.42-15.57,22A31.06,31.06,0,0,0,300,36c-1,1.3-1.79,1.08-2.87,0-6.75-6.83-13.55-13.6-20.34-20.38l-9.93-9.95C265,3.79,263,1.9,261.13,0H250.92a2.33,2.33,0,0,1,.44.37q20.7,20.78,41.45,41.52a4.42,4.42,0,0,1,.49.93c-3.17,2.7-6.08,5.64-9.43,7.93-6.2,4.23-12.69,8-19,12.1-1.95,1.25-3.16.75-4.77-.81-8.22-8-15.7-16.57-21.32-26.6-2.84-5.07-5.13-10.44-7.58-15.72a2.13,2.13,0,0,1,.49-1.86C237.42,12,243.21,6.29,249,.5a4.07,4.07,0,0,1,.57-.5H239.29L227.18,12.05a1.86,1.86,0,0,1-.44.19c-2.83-3.12-5.54-6.17-8.33-9.15A41.38,41.38,0,0,0,215.14,0H176.23a66.6,66.6,0,0,0,14.94,9.08A42.55,42.55,0,0,1,209.23,23.69Z"/><path class="cls-2" d="M268.5,69.29c6.34,4.08,12.61,7.94,19.13,11.33A58.62,58.62,0,0,0,311,87.15a41.42,41.42,0,0,0,10.25-.64c3.31-.63,6.47-2,9.46-3l-.34.46a.79.79,0,0,1,.34.23c.75-.74,1.49-1.49,2.23-2.23L298.56,47.59C289.29,56,279.63,63.4,268.5,69.29Z"/><path class="cls-2" d="M340.34,72.87c3.44-9,2.14-18-.52-26.83a89.56,89.56,0,0,0-12.14-24.6c-1.29-1.9-2.76-3.68-3.9-5.18-6.64,9-13.08,17.72-19.69,26.68l34,34,2.23-2.23.3-1C340.48,73.41,340.25,73.08,340.34,72.87Z"/><path class="cls-2" d="M328.06,10.19c2.94,4.37,6.21,8.53,9,13a81,81,0,0,1,11.85,30.92c.21,1.37.64,2.7,1,4,.78-1.85,1.72-3.65,2.32-5.56,5.9-18.55,4.92-36.12-3-52.58H330c-.75,2.41-1.62,4.79-2.59,7.16A3.89,3.89,0,0,0,328.06,10.19Z"/><path class="cls-2" d="M321.58,2.52c.32-.85.63-1.69.92-2.52h-3.38Q320.37,1.24,321.58,2.52Z"/><path class="cls-2" d="M231.69,17.86a2.13,2.13,0,0,0-.49,1.86c2.45,5.28,4.74,10.65,7.58,15.72,5.62,10,13.1,18.62,21.32,26.6,1.61,1.56,2.82,2.06,4.77.81,6.31-4.06,12.8-7.87,19-12.1,3.35-2.29,6.26-5.23,9.43-7.93a4.42,4.42,0,0,0-.49-.93Q272.08,21.13,251.36.37a2.33,2.33,0,0,0-.44-.37h-1.38a4.07,4.07,0,0,0-.57.5C243.21,6.29,237.42,12,231.69,17.86Z"/><path class="cls-2" d="M276.79,15.64c6.79,6.78,13.59,13.55,20.34,20.38,1.08,1.09,1.9,1.31,2.87,0a31.06,31.06,0,0,1,2-2.65c6.24-6.6,11.08-14.18,15.57-22a2.13,2.13,0,0,0-.41-3.09c-2.95-2.7-5.77-5.56-8.71-8.27H261.13C263,1.9,265,3.79,266.86,5.69Z"/><path class="cls-2" d="M226.74,12.24a1.86,1.86,0,0,0,.44-.19L239.29,0H215.14a41.38,41.38,0,0,1,3.27,3.09C221.2,6.07,223.91,9.12,226.74,12.24Z"/><path class="cls-2" d="M277.4,484.08c16.13,6.37,29.68,15.88,41.72,27.92H308.49c-1-.88-1.93-1.75-2.92-2.59a93.65,93.65,0,0,0-12.31-9.2c-6.4-3.81-13.14-7-19.8-10.41a2.72,2.72,0,0,0-2.37.68c-4.79,4.65-9.43,9.44-14.22,14.08-1.3,1.26-1.24,2,0,3.23,1.42,1.39,2.82,2.81,4.24,4.21H250.92a1.11,1.11,0,0,0-1.38,0H239.29l4.78-4.74c1.18-1.15.39-1.78-.38-2.54-10.91-10.91-21.85-21.8-32.7-32.76-1.43-1.45-2.22-.93-3.17.3-2.24,2.87-4.7,5.6-6.68,8.63-2.76,4.23-5.21,8.66-7.67,13.08a2.36,2.36,0,0,0,.43,2.22,85.54,85.54,0,0,0,8.14,6.59c4.43,3,9,5.75,13.1,9.22H176.23c-12.15-9.89-18.91-23.57-20.1-41-.92-13.32,3.17-25.4,10.94-36.23a9.67,9.67,0,0,1,1.09-1.13c-.27,1.33-.5,2.66-.82,4-2.09,8.46-.81,16.63,2.15,24.64a70,70,0,0,0,9.31,17.28c2.54,3.45,5.31,6.73,8.39,10.6A50.69,50.69,0,0,1,190,485c4.12-5.73,8.28-11.43,12.55-17.05,1.77-2.32,1.9-2.51-.14-4.56l-32.28-32.3,5.11-5,32.11,32.08c2.27,2.27,2.54,2.21,5,0a72.25,72.25,0,0,1,6.32-5.29c3.85-2.77,7.83-5.35,11.95-8.14a15.84,15.84,0,0,0-1.25-1.22c-.45-.38-1-.61-1.46-1a75.4,75.4,0,0,0-21.22-14.27c-6.71-3.08-13.65-5.4-21.18-4.89-2.86.2-5.69.88-8.54,1.34A42.54,42.54,0,0,1,192,416a5.2,5.2,0,0,0,1.18.54,60.55,60.55,0,0,1,17,5.38,86.07,86.07,0,0,1,25.22,17.82c1.42,1.47,2.76,1.91,4.76.94a25.6,25.6,0,0,1,6.37-2.1c4.23-.79,8.52-1.29,12.78-1.9l4.69,8.06c-7.21-1.85-14-.08-21,2.32.63,1,1.06,1.76,1.58,2.46,1.73,2.32,3.7,4.49,5.21,6.95a84.71,84.71,0,0,0,15.43,18.77,45.51,45.51,0,0,0,5.15,3.9,1.94,1.94,0,0,0,1.84-.13c3.79-3.73,7.5-7.55,11.23-11.34l7.19,3.17Zm-12.41.09a24.78,24.78,0,0,0-3.41-2.87c-6-4.49-10.46-10.34-14.74-16.38-3.22-4.55-6.62-9-10-13.45a1.52,1.52,0,0,0-2.44-.36c-4.85,3.31-9.82,6.46-14.64,9.81a60.55,60.55,0,0,0-5.19,4.55l1.88,1.88,31.82,31.81c.31.32.59.81,1,.91.59.16,1.52.34,1.84,0q7.09-6.92,14-14A2,2,0,0,0,265,484.17Z"/><path class="cls-2" d="M332.81,491a3,3,0,0,1,.19-.87l-9.26-7.27a36.46,36.46,0,0,1,2.06,14.5A53.24,53.24,0,0,1,322.5,512H330A57.16,57.16,0,0,0,332.81,491Z"/><path class="cls-2" d="M168.68,433l-.52.69c-.27,1.33-.5,2.66-.82,4-2.09,8.46-.81,16.63,2.15,24.64a70,70,0,0,0,9.31,17.28c2.54,3.45,5.31,6.73,8.39,10.6A50.69,50.69,0,0,1,190,485c4.12-5.73,8.28-11.43,12.55-17.05,1.77-2.32,1.9-2.51-.14-4.56l-32.28-32.3-1.06,1.38Z"/><path class="cls-2" d="M342.57,500.76c-2.71-3.87-6.36-7.08-9.57-10.6a3,3,0,0,0-.19.87A57.16,57.16,0,0,1,330,512h19.16A79.75,79.75,0,0,0,342.57,500.76Z"/><path class="cls-2" d="M323.74,482.89c-4.22-2.18-8.26-4.89-12.7-6.42-6.67-2.3-13.61-3.77-20.44-5.59l-13.2,13.2c16.13,6.37,29.68,15.88,41.72,27.92h3.38a53.24,53.24,0,0,0,3.3-14.61A36.46,36.46,0,0,0,323.74,482.89Z"/><path class="cls-2" d="M207.34,458.19c2.27,2.27,2.54,2.21,5,0a72.25,72.25,0,0,1,6.32-5.29c3.85-2.77,7.83-5.35,11.95-8.14a15.84,15.84,0,0,0-1.25-1.22c-.45-.38-1-.61-1.46-1a75.4,75.4,0,0,0-21.22-14.27c-6.71-3.08-13.65-5.4-21.18-4.89-2.86.2-5.69.88-8.54,1.34l-1.76,1.45Z"/><path class="cls-2" d="M249.1,425.53c-11.87-10.36-25.93-14.46-41.54-13.29A43.11,43.11,0,0,0,192,416a5.2,5.2,0,0,0,1.18.54,60.55,60.55,0,0,1,17,5.38,86.07,86.07,0,0,1,25.22,17.82c1.42,1.47,2.76,1.91,4.76.94a25.6,25.6,0,0,1,6.37-2.1c4.23-.79,8.52-1.29,12.78-1.9C255.9,433,252.87,428.82,249.1,425.53Z"/><path class="cls-2" d="M270.55,456.42c-2.44-3.72-4.41-7.75-6.59-11.64-7.21-1.85-14-.08-21,2.32.63,1,1.06,1.76,1.58,2.46,1.73,2.32,3.7,4.49,5.21,6.95a84.71,84.71,0,0,0,15.43,18.77,45.51,45.51,0,0,0,5.15,3.9,1.94,1.94,0,0,0,1.84-.13c3.79-3.73,7.5-7.55,11.23-11.34C278.48,464.67,273.76,461.32,270.55,456.42Z"/><path class="cls-2" d="M249.54,512h1.38A1.11,1.11,0,0,0,249.54,512Z"/><path class="cls-2" d="M293.26,500.21c-6.4-3.81-13.14-7-19.8-10.41a2.72,2.72,0,0,0-2.37.68c-4.79,4.65-9.43,9.44-14.22,14.08-1.3,1.26-1.24,2,0,3.23,1.42,1.39,2.82,2.81,4.24,4.21h47.36c-1-.88-1.93-1.75-2.92-2.59A93.65,93.65,0,0,0,293.26,500.21Z"/><path class="cls-2" d="M243.69,504.72c-10.91-10.91-21.85-21.8-32.7-32.76-1.43-1.45-2.22-.93-3.17.3-2.24,2.87-4.7,5.6-6.68,8.63-2.76,4.23-5.21,8.66-7.67,13.08a2.36,2.36,0,0,0,.43,2.22,85.54,85.54,0,0,0,8.14,6.59c4.43,3,9,5.75,13.1,9.22h24.15l4.78-4.74C245.25,506.11,244.46,505.48,243.69,504.72Z"/><path class="cls-2" d="M261.58,481.3c-6-4.49-10.46-10.34-14.74-16.38-3.22-4.55-6.62-9-10-13.45a1.52,1.52,0,0,0-2.44-.36c-4.85,3.31-9.82,6.46-14.64,9.81a60.55,60.55,0,0,0-5.19,4.55l1.88,1.88,31.82,31.81c.31.32.59.81,1,.91.59.16,1.52.34,1.84,0q7.09-6.92,14-14a2,2,0,0,0-.13-1.93A24.78,24.78,0,0,0,261.58,481.3Z"/><path class="cls-2" d="M156.13,215c-.92-13.32,3.17-25.4,10.94-36.23a9.67,9.67,0,0,1,1.09-1.13c-.27,1.33-.5,2.66-.82,4-2.09,8.46-.81,16.63,2.15,24.64a70,70,0,0,0,9.31,17.28c2.54,3.45,5.31,6.73,8.39,10.6A50.69,50.69,0,0,1,190,229c4.12-5.73,8.28-11.43,12.55-17,1.77-2.32,1.9-2.51-.14-4.56l-32.28-32.3,5.11-5,32.11,32.08c2.27,2.27,2.54,2.21,5,0a72.25,72.25,0,0,1,6.32-5.29c3.85-2.77,7.83-5.35,11.95-8.14a15.84,15.84,0,0,0-1.25-1.22c-.45-.38-1-.61-1.46-1a75.4,75.4,0,0,0-21.22-14.27c-6.71-3.08-13.65-5.4-21.18-4.89-2.86.2-5.69.88-8.54,1.34A42.54,42.54,0,0,1,192,160a5.2,5.2,0,0,0,1.18.54,60.55,60.55,0,0,1,17,5.38,86.07,86.07,0,0,1,25.22,17.82c1.42,1.47,2.76,1.91,4.76.94a25.6,25.6,0,0,1,6.37-2.1c4.23-.79,8.52-1.29,12.78-1.9l4.69,8.06c-7.21-1.85-14-.08-21,2.32.63,1,1.06,1.76,1.58,2.46,1.73,2.32,3.7,4.49,5.21,6.95a84.71,84.71,0,0,0,15.43,18.77,45.51,45.51,0,0,0,5.15,3.9,1.94,1.94,0,0,0,1.84-.13c3.79-3.73,7.5-7.55,11.23-11.34l7.19,3.17-13.2,13.2c17.24,6.81,31.53,17.2,44.18,30.44,2.22-5.86,3.87-11.33,4.22-17.13a36.46,36.46,0,0,0-2.06-14.5l9.26,7.27a3,3,0,0,0-.19.87c.65,9.84-1.68,19.1-5.37,28.13a3.89,3.89,0,0,0,.62,3c2.94,4.37,6.21,8.53,9,13a81,81,0,0,1,11.85,30.92c.21,1.37.64,2.7,1,4.05a50.5,50.5,0,0,1-9.32,15.54c-.09-.27-.32-.6-.23-.81,3.44-9,2.14-18-.52-26.83a89.56,89.56,0,0,0-12.14-24.6c-1.29-1.9-2.76-3.68-3.9-5.18-6.64,9-13.08,17.72-19.69,26.68l34,33.95L333,338l-34.39-34.39c-9.27,8.36-18.93,15.81-30.06,21.7,6.34,4.08,12.61,7.94,19.13,11.33A58.62,58.62,0,0,0,311,343.15a41.42,41.42,0,0,0,10.25-.64c3.31-.63,6.47-2,9.46-3l-.34.46a66.32,66.32,0,0,1-37.07,15.57,70.36,70.36,0,0,1-76.4-56.44c-1.38-7-3.59-13.53-7.68-19.42a42.55,42.55,0,0,0-18.06-14.61C169.56,255.36,157.75,238.6,156.13,215ZM293.3,298.82a4.42,4.42,0,0,0-.49-.93q-20.73-20.76-41.45-41.52c-1-1-1.57-.7-2.39.13-5.76,5.79-11.55,11.54-17.28,17.36a2.13,2.13,0,0,0-.49,1.86c2.45,5.28,4.74,10.65,7.58,15.72,5.62,10,13.1,18.62,21.32,26.6,1.61,1.56,2.82,2.06,4.77.81,6.31-4.06,12.8-7.87,19-12.1C287.22,304.46,290.13,301.52,293.3,298.82Zm-36.43-50.26c-1.3,1.26-1.24,2,0,3.23,6.68,6.57,13.27,13.22,19.9,19.85,6.79,6.78,13.59,13.55,20.34,20.38,1.08,1.09,1.9,1.31,2.87,0a31.06,31.06,0,0,1,2-2.65c6.24-6.6,11.08-14.18,15.57-22a2.13,2.13,0,0,0-.41-3.09c-3.92-3.58-7.59-7.44-11.63-10.86a93.65,93.65,0,0,0-12.31-9.2c-6.4-3.81-13.14-7.05-19.8-10.41a2.72,2.72,0,0,0-2.37.68C266.3,239.13,261.66,243.92,256.87,248.56Zm-42.25-39.09,1.88,1.88,31.82,31.81c.31.32.59.81,1,.91.59.16,1.52.34,1.84,0q7.09-6.91,14-14a2,2,0,0,0-.13-1.93,24.78,24.78,0,0,0-3.41-2.87c-6-4.49-10.46-10.34-14.74-16.38-3.22-4.55-6.62-9-10-13.45a1.52,1.52,0,0,0-2.44-.36c-4.85,3.31-9.82,6.46-14.64,9.81A60.55,60.55,0,0,0,214.62,209.47ZM193.9,240.19a85.54,85.54,0,0,0,8.14,6.59c5.66,3.84,11.63,7.25,16.37,12.31,2.79,3,5.5,6,8.33,9.15a1.86,1.86,0,0,0,.44-.19c5.63-5.6,11.24-11.22,16.89-16.79,1.18-1.15.39-1.78-.38-2.54-10.91-10.91-21.85-21.8-32.7-32.76-1.43-1.45-2.22-.93-3.17.3-2.24,2.87-4.7,5.6-6.68,8.63-2.76,4.23-5.21,8.66-7.67,13.08A2.36,2.36,0,0,0,193.9,240.19Z"/><path class="cls-2" d="M268.5,325.29c6.34,4.08,12.61,7.94,19.13,11.33A58.62,58.62,0,0,0,311,343.15a41.42,41.42,0,0,0,10.25-.64c3.31-.63,6.47-2,9.46-3l-.34.46a.79.79,0,0,1,.34.23c.75-.74,1.49-1.49,2.23-2.23l-34.39-34.39C289.29,312,279.63,319.4,268.5,325.29Z"/><path class="cls-2" d="M340.34,328.87c3.44-9,2.14-18-.52-26.83a89.56,89.56,0,0,0-12.14-24.6c-1.29-1.9-2.76-3.68-3.9-5.18-6.64,9-13.08,17.72-19.69,26.68l34,33.95,2.23-2.23.3-1C340.48,329.41,340.25,329.08,340.34,328.87Z"/><path class="cls-2" d="M169.49,206.26a70,70,0,0,0,9.31,17.28c2.54,3.45,5.31,6.73,8.39,10.6A50.69,50.69,0,0,1,190,229c4.12-5.73,8.28-11.43,12.55-17,1.77-2.32,1.9-2.51-.14-4.56l-32.28-32.3-1.06,1.38-.38.45-.52.69c-.27,1.33-.5,2.66-.82,4C165.25,190.08,166.53,198.25,169.49,206.26Z"/><path class="cls-2" d="M327.44,263.16a3.89,3.89,0,0,0,.62,3c2.94,4.37,6.21,8.53,9,13a81,81,0,0,1,11.85,30.92c.21,1.37.64,2.7,1,4.05.78-1.85,1.72-3.65,2.32-5.56,7.27-22.85,4.09-44.2-9.64-63.82-2.71-3.87-6.36-7.08-9.57-10.6a3,3,0,0,0-.19.87C333.46,244.87,331.13,254.13,327.44,263.16Z"/><path class="cls-2" d="M321.58,258.52c2.22-5.86,3.87-11.33,4.22-17.13a36.46,36.46,0,0,0-2.06-14.5c-4.22-2.18-8.26-4.89-12.7-6.42-6.67-2.3-13.61-3.77-20.44-5.59l-13.2,13.2C294.64,234.89,308.93,245.28,321.58,258.52Z"/><path class="cls-2" d="M212.37,202.15a72.25,72.25,0,0,1,6.32-5.29c3.85-2.77,7.83-5.35,11.95-8.14a15.84,15.84,0,0,0-1.25-1.22c-.45-.38-1-.61-1.46-1a75.4,75.4,0,0,0-21.22-14.27c-6.71-3.08-13.65-5.4-21.18-4.89-2.86.2-5.69.88-8.54,1.34l-1.76,1.45,32.11,32.08C209.61,204.46,209.88,204.4,212.37,202.15Z"/><path class="cls-2" d="M210.14,166a86.07,86.07,0,0,1,25.22,17.82c1.42,1.47,2.76,1.91,4.76.94a25.6,25.6,0,0,1,6.37-2.1c4.23-.79,8.52-1.29,12.78-1.9-3.37-3.76-6.4-7.9-10.17-11.19-11.87-10.36-25.93-14.46-41.54-13.29A43.11,43.11,0,0,0,192,160a5.2,5.2,0,0,0,1.18.54A60.55,60.55,0,0,1,210.14,166Z"/><path class="cls-2" d="M243,191.1c.63,1,1.06,1.76,1.58,2.46,1.73,2.32,3.7,4.49,5.21,6.95a84.71,84.71,0,0,0,15.43,18.77,45.51,45.51,0,0,0,5.15,3.9,1.94,1.94,0,0,0,1.84-.13c3.79-3.73,7.5-7.55,11.23-11.34-4.93-3-9.65-6.39-12.86-11.29-2.44-3.72-4.41-7.75-6.59-11.64C256.75,186.93,250,188.7,243,191.1Z"/><path class="cls-2" d="M251.36,256.37c-1-1-1.57-.7-2.39.13-5.76,5.79-11.55,11.54-17.28,17.36a2.13,2.13,0,0,0-.49,1.86c2.45,5.28,4.74,10.65,7.58,15.72,5.62,10,13.1,18.62,21.32,26.6,1.61,1.56,2.82,2.06,4.77.81,6.31-4.06,12.8-7.87,19-12.1,3.35-2.29,6.26-5.23,9.43-7.93a4.42,4.42,0,0,0-.49-.93Q272.08,277.13,251.36,256.37Z"/><path class="cls-2" d="M256.89,251.79c6.68,6.57,13.27,13.22,19.9,19.85,6.79,6.78,13.59,13.55,20.34,20.38,1.08,1.09,1.9,1.31,2.87,0a31.06,31.06,0,0,1,2-2.65c6.24-6.6,11.08-14.18,15.57-22a2.13,2.13,0,0,0-.41-3.09c-3.92-3.58-7.59-7.44-11.63-10.86a93.65,93.65,0,0,0-12.31-9.2c-6.4-3.81-13.14-7.05-19.8-10.41a2.72,2.72,0,0,0-2.37.68c-4.79,4.65-9.43,9.44-14.22,14.08C255.57,249.82,255.63,250.55,256.89,251.79Z"/><path class="cls-2" d="M202,246.78c5.66,3.84,11.63,7.25,16.37,12.31,2.79,3,5.5,6,8.33,9.15a1.86,1.86,0,0,0,.44-.19c5.63-5.6,11.24-11.22,16.89-16.79,1.18-1.15.39-1.78-.38-2.54-10.91-10.91-21.85-21.8-32.7-32.76-1.43-1.45-2.22-.93-3.17.3-2.24,2.87-4.7,5.6-6.68,8.63-2.76,4.23-5.21,8.66-7.67,13.08a2.36,2.36,0,0,0,.43,2.22A85.54,85.54,0,0,0,202,246.78Z"/><path class="cls-2" d="M248.32,243.16c.31.32.59.81,1,.91.59.16,1.52.34,1.84,0q7.09-6.91,14-14a2,2,0,0,0-.13-1.93,24.78,24.78,0,0,0-3.41-2.87c-6-4.49-10.46-10.34-14.74-16.38-3.22-4.55-6.62-9-10-13.45a1.52,1.52,0,0,0-2.44-.36c-4.85,3.31-9.82,6.46-14.64,9.81a60.55,60.55,0,0,0-5.19,4.55l1.88,1.88Z"/></pattern></defs><g id="BG"><rect class="cls-3" width="512" height="512"/></g><g id="PATTERN"><rect class="cls-4" width="512" height="512"/></g></svg>