<svg xmlns="http://www.w3.org/2000/svg" viewBox="0 0 512 512"><defs><style>.cls-1{fill:#fe8e43;}.cls-2{fill:#fe9d5d;}.cls-3{fill:#fe9e5d;}.cls-4{fill:#e6c455;}.cls-5{fill:#fe9b5a;}.cls-6{fill:#bf692f;}.cls-7{fill:#b8591b;}.cls-8{fill:#e0b62b;}.cls-9{fill:#b8591a;stroke:#b8591a;}.cls-10,.cls-9{stroke-miterlimit:10;stroke-width:5px;}.cls-10{fill:#fff;stroke:#c0692f;}</style></defs><g id="Layer_2" data-name="Layer 2"><path class="cls-1" d="M304.47,392.34c-5,5.42-9.85,10.9-14.92,16.22-1.25,1.31-3.07,2.1-4.62,3.13,1.94-4.73,4.21-9.36,5.76-14.21,5.83-18.27,4.17-36.61-.45-54.77-2.2-8.62-5.35-17-8-25.36l-41.5,33.21c8,13.76,16.17,27.71,24.17,41.77,4.56,8,8.81,16.16,13.2,24.25l-9.78,5.55a46,46,0,0,0-2.11-4.88q-9-15.81-18.19-31.53c-5.77-9.91-11.6-19.77-17.13-29.18L176.4,376.9a2.06,2.06,0,0,0,.41.66c11.79,14.43,25,27.31,41.29,36.61,10.21,5.82,21,9.8,32.93,10.09l12.58.3a110,110,0,0,1-64.06,7.85c-31.49-5.34-55.79-21.78-73.81-47.65-12.39-17.79-18.32-37.93-18.92-59.58-.29-10.05.72-20.23-.5-30.14-2.22-18.14-11.45-32.28-26-43.68-17.82-13.93-28.52-32.61-32.52-55.06-3.79-21.27-.22-41.24,10.18-60a78.74,78.74,0,0,1,24.1-27,19.62,19.62,0,0,1-1.54,4c-5.66,8.66-7.69,18.26-8.21,28.47-.71,14.17,2.37,27.65,6.93,40.82,2.33,6.73,5.8,13.06,8.7,19.46l36.3-30.48c-9.22-16-18.61-32.41-28.13-48.76-3.22-5.54-6.75-10.9-10.14-16.35l9.8-5.83a7.93,7.93,0,0,1,1.74,1.61c5.33,9.25,10.58,18.54,15.9,27.79q9.4,16.41,18.92,32.77c1.24,2.14,2.54,3.9,5.78,2.52,11.5-4.91,23.12-9.52,34.65-14.22a124.12,124.12,0,0,0-26.44-32.47c-13.08-11.61-27.78-19.94-46-20,8.38-4.21,17.14-6.9,26.62-6.73,3.38,2.14,6.7,4.39,10.14,6.42,19.56,11.54,34.15,27.87,45.36,47.34,1.79,3.1,3.78,4.37,6.94,3.69,10.74-2.31,21.11.15,31.53,2.11L224.31,164a18.09,18.09,0,0,1-4.23-.76c-9.06-4-18.54-3-28.67-3.05,7.91,20.35,13.07,41.12,26.56,58.16,1,1.31,2.17,2.56,3.24,3.81L245,208.81l10,7.78-26.44,14.34c24.38,17.3,41.49,39.47,55.56,64.63,11.26-14.23,17.4-29.55,16.44-47.33L311.39,263c-3.13,15.44-10.2,29-19.85,41.28a6.73,6.73,0,0,0-1,5.33c1.27,4.09,3.3,7.94,4.82,12,5.84,15.48,9.54,31.44,9.84,48C305.39,377.18,304.76,384.77,304.47,392.34ZM176.16,261.51l-38.95,22.43c3.59,13.65,7,27.54,10.92,41.26s11,26,18.59,38a5.26,5.26,0,0,0,4.51,1.79c9.51-2.47,19.09-4.83,28.33-8.13,8.45-3,16.5-7.16,25.27-11.05ZM234.68,340c3-2.15,5.33-4.07,7.89-5.64,12.22-7.47,22.32-17.45,32.33-27.51a3.55,3.55,0,0,0,.49-3.37c-8.09-12.39-15.45-25.41-24.83-36.77-8.16-9.87-18.76-17.7-28-26.72-2.8-2.73-5-2.72-8-.87-6.08,3.69-12.32,7.12-18.44,10.75-3.36,2-6.62,4.14-9.92,6.22ZM130.36,182.19c-2.23,1.74-3.9,3-5.48,4.3C115.64,194.27,106.33,202,97.32,210c-1.15,1-1.6,4.43-.79,5.78a127.66,127.66,0,0,0,9.35,12.83c6.17,7.84,12.92,15.28,18.57,23.48,4.16,6,7,13,10.54,20,10.11-5.86,20-11.58,29.89-17.34,5.82-3.39,5.66-3.35,2.24-9.13-6.76-11.4-13.32-22.91-20-34.38Zm49-21.44c-11.82,4.81-22.46,8.95-33,13.46-6,2.59-5.78,2.78-2.47,8.43,5.56,9.49,10.89,19.11,16.38,28.64,6.6,11.47,13.26,22.9,20,34.63l30.94-18c-10.51-12.58-17.14-26.3-22.21-40.88C186.22,178.7,183,170.52,179.37,160.75Z"/><path class="cls-2" d="M263.61,424.56l-12.58-.3c-11.91-.29-22.72-4.27-32.93-10.09-16.32-9.3-29.5-22.18-41.29-36.61a2.06,2.06,0,0,1-.41-.66l54.48-20.36c5.53,9.41,11.36,19.27,17.13,29.18q9.15,15.72,18.19,31.53a46,46,0,0,1,2.11,4.88Z"/><path class="cls-2" d="M278.09,416.58c-4.39-8.09-8.64-16.25-13.2-24.25-8-14.06-16.19-28-24.17-41.77l41.5-33.21c2.67,8.36,5.82,16.74,8,25.36,4.62,18.16,6.28,36.5.45,54.77-1.55,4.85-3.82,9.48-5.76,14.21l0-.08-1,.87Z"/><path class="cls-2" d="M86,106.49c3.39,5.45,6.92,10.81,10.14,16.35,9.52,16.35,18.91,32.77,28.13,48.76l-36.3,30.48c-2.9-6.4-6.37-12.73-8.7-19.46-4.56-13.17-7.64-26.65-6.93-40.82.52-10.21,2.55-19.81,8.21-28.47a19.62,19.62,0,0,0,1.54-4l0,.09,1-1.15Z"/><path class="cls-3" d="M304.47,392.34c.29-7.57.92-15.16.78-22.73-.3-16.58-4-32.54-9.84-48-1.52-4-3.55-7.87-4.82-12a6.73,6.73,0,0,1,1-5.33c9.65-12.33,16.72-25.84,19.85-41.28,8,11.16,12.48,23.74,15.45,37,4.61,20.63,2.91,40.88-4.1,60.62C318.62,372.24,313.3,383.36,304.47,392.34Z"/><path class="cls-2" d="M300.51,248.23c1,17.78-5.18,33.1-16.44,47.33-14.07-25.16-31.18-47.33-55.56-64.63L255,216.59c10.41,6.08,21.07,11.76,31.1,18.39C291.44,238.55,295.73,243.76,300.51,248.23Z"/><path class="cls-2" d="M100.33,98.62c18.19.1,32.89,8.43,46,20a124.12,124.12,0,0,1,26.44,32.47c-11.53,4.7-23.15,9.31-34.65,14.22-3.24,1.38-4.54-.38-5.78-2.52q-9.53-16.34-18.92-32.77c-5.32-9.25-10.57-18.54-15.9-27.79a7.93,7.93,0,0,0-1.74-1.61Z"/><path class="cls-3" d="M220.92,151.45c-10.42-2-20.79-4.42-31.53-2.11-3.16.68-5.15-.59-6.94-3.69-11.21-19.47-25.8-35.8-45.36-47.34-3.44-2-6.76-4.28-10.14-6.42,8.3.11,16.78-.88,24.84.55,22.31,4,41.18,14.73,54.77,33.05C212.4,133.36,216.2,142.75,220.92,151.45Z"/><path class="cls-3" d="M245,208.81l-23.75,13.35c-1.07-1.25-2.2-2.5-3.24-3.81-13.49-17-18.65-37.81-26.56-58.16,10.13,0,19.61-1,28.67,3.05a18.09,18.09,0,0,0,4.23.76A73.8,73.8,0,0,0,245,208.81Z"/><path class="cls-1" d="M83.06,108.27l-1,1.15Z"/><path class="cls-1" d="M283.91,412.48l1-.87Z"/><path class="cls-2" d="M176.16,261.51l48.67,84.3c-8.77,3.89-16.82,8-25.27,11.05-9.24,3.3-18.82,5.66-28.33,8.13a5.26,5.26,0,0,1-4.51-1.79c-7.61-12-14.64-24.29-18.59-38s-7.33-27.61-10.92-41.26Z"/><path class="cls-2" d="M234.68,340l-48.49-83.91c3.3-2.08,6.56-4.24,9.92-6.22,6.12-3.63,12.36-7.06,18.44-10.75,3-1.85,5.21-1.86,8,.87,9.24,9,19.84,16.85,28,26.72,9.38,11.36,16.74,24.38,24.83,36.77a3.55,3.55,0,0,1-.49,3.37c-10,10.06-20.11,20-32.33,27.51C240,335.91,237.66,337.83,234.68,340Z"/><path class="cls-2" d="M130.36,182.19l16.79,29c6.65,11.47,13.21,23,20,34.38,3.42,5.78,3.58,5.74-2.24,9.13C155,260.48,145.1,266.2,135,272.06c-3.59-6.93-6.38-13.91-10.54-20-5.65-8.2-12.4-15.64-18.57-23.48a127.66,127.66,0,0,1-9.35-12.83c-.81-1.35-.36-4.75.79-5.78,9-8,18.32-15.74,27.56-23.52C126.46,185.16,128.13,183.93,130.36,182.19Z"/><path class="cls-2" d="M179.37,160.75c3.63,9.77,6.85,17.95,9.74,26.24,5.07,14.58,11.7,28.3,22.21,40.88l-30.94,18c-6.79-11.73-13.45-23.16-20-34.63-5.49-9.53-10.82-19.15-16.38-28.64-3.31-5.65-3.55-5.84,2.47-8.43C156.91,169.7,167.55,165.56,179.37,160.75Z"/><path class="cls-4" d="M452.63,180.62c-1.05,6.54-2.05,13.1-3.17,19.64q-2.77,16.19-5.68,32.36-2.76,15.6-5.59,31.2c-.59,3.29-1.27,6.55-1.9,9.83-3.9-.69-7.8-1.36-11.7-2.06-9.13-1.64-18.25-3.31-27.38-4.91a4.23,4.23,0,0,0-2.28.26c-2.83,1.2-5.58,2.64-8.43,3.79a57.06,57.06,0,0,1-27.18,3.63,61.53,61.53,0,0,1-24.78-8,45.54,45.54,0,0,1-6.94-4.67c-3.15-2.69-6-5.72-9-8.53a3.83,3.83,0,0,0-1.86-.53q-11.25-2.09-22.52-4.12c2.14-11.58,4.33-23.16,6.4-34.75,2.11-11.79,4.12-23.59,6.15-35.4,1.31-7.61,2.57-15.23,3.85-22.85,7.41,1.36,14.81,2.76,22.24,4a6,6,0,0,0,3.29-.65c8.56-4.1,17.47-7.09,27-7.19,9.16-.08,18.21,1.2,26.69,5a57.16,57.16,0,0,1,18.89,13c1.9,2.05,3.77,4,6.84,4.52C427.91,176.24,440.26,178.46,452.63,180.62Zm-59,62.61c2.88-2.6,3.88-6.09,4.47-9.72,1.44-8.89-3-17.94-10.35-21.37-8.35-3.89-12.77-9.86-13.82-18.79s-6.3-14.5-14.58-17.63c-4.5-1.7-8.78-.71-13.14.27l-2.09,1c-7.8,3.94-11.9,10.39-11.86,19,.05,8.39,4.09,14.66,11.61,18.59,1.78.93,3.78,1.74,5.14,3.13,4.13,4.22,7.35,9,7.67,15.2.55,10.44,11.73,19.7,22,18.39C384.6,250.6,390.34,249.08,393.62,243.23Z"/><path class="cls-5" d="M452.63,180.62c-12.37-2.16-24.72-4.38-37.11-6.43-3.07-.51-4.94-2.47-6.84-4.52a57.16,57.16,0,0,0-18.89-13c-8.48-3.82-17.53-5.1-26.69-5-9.52.1-18.43,3.09-27,7.19a6,6,0,0,1-3.29.65c-7.43-1.26-14.83-2.66-22.24-4l-16.34-2.92c1.13-6.19,2.53-12.34,3.33-18.57.92-7.23,3.55-13.38,9.74-17.46,7.37-4.86,10.39-12,11.39-20.34.3-2.46.78-4.89,1.18-7.34,5.42.85,10.86,1.64,16.26,2.58C346.59,93.24,357,95.16,367.46,97c12.72,2.24,25.45,4.43,38.18,6.65,12,2.08,23.94,4.12,35.89,6.29,3,.54,5.88,1.5,8.82,2.26-1.09,7.27-4,14.48-1.52,21.9a46.34,46.34,0,0,0,4.63,9c2.68,4.44,4,9.21,3.28,14.29C455.58,165.13,454,172.86,452.63,180.62Z"/><path class="cls-2" d="M294.18,248.47q11.26,2.06,22.52,4.12a3.83,3.83,0,0,1,1.86.53c3,2.81,5.89,5.84,9,8.53a45.54,45.54,0,0,0,6.94,4.67,61.53,61.53,0,0,0,24.78,8,57.06,57.06,0,0,0,27.18-3.63c2.85-1.15,5.6-2.59,8.43-3.79a4.23,4.23,0,0,1,2.28-.26c9.13,1.6,18.25,3.27,27.38,4.91,3.9.7,7.8,1.37,11.7,2.06q-2.57,14.24-5.12,28.46c-1.08,6-1.49,12.2-3.46,17.88-2.89,8.35-11.93,14.32-20.68,13.33-6.66-.76-13.26-2.11-19.87-3.23-8.51-1.45-17-2.89-25.51-4.4-8.11-1.43-16.2-3-24.32-4.42-8.4-1.48-16.81-2.88-25.22-4.35-4.43-.77-8.86-1.6-13.29-2.4a5.58,5.58,0,0,0-1.09-1.13c-8.3-4.94-11.9-12.48-10.9-21.81.86-8,2.77-15.95,4.16-23.94,1.11-6.36,2.12-12.75,3.17-19.13Z"/><path class="cls-6" d="M329.89,57.76c6.59,1.07,13.18,2.11,19.76,3.22,7.33,1.24,14.65,2.54,22,3.83,7.13,1.26,14.25,2.54,21.38,3.79,7.32,1.29,14.65,2.52,22,3.82,8.07,1.43,16.13,2.9,24.19,4.35,4.87.88,9.73,1.89,14.62,2.62,5.59.85,7.14,2.45,6.34,8-.73,5-1.91,9.94-2.89,14.91-3.06-.43-6.14-.75-9.18-1.29-19.2-3.43-38.38-6.94-57.58-10.35s-38.24-6.66-57.35-10c-5.89-1-7.31-3.26-6-9,.16-.76.27-1.52.42-2.28Q328.7,63.52,329.89,57.76Z"/><path class="cls-7" d="M329.89,57.76q-1.18,5.76-2.39,11.52c-.15.76-.26,1.52-.42,2.28-1.27,5.77.15,8,6,9,19.11,3.37,38.24,6.64,57.35,10s38.38,6.92,57.58,10.35c3,.54,6.12.86,9.18,1.29-.38,5.52-.25,8.75-6.88,9.94-2.94-.76-5.84-1.72-8.82-2.26-11.95-2.17-23.93-4.21-35.89-6.29-12.73-2.22-25.46-4.41-38.18-6.65-10.44-1.84-20.87-3.76-31.32-5.58-5.4-.94-10.84-1.73-16.26-2.58-4.16-1.75-4.73-2.74-3.77-8.86,1-6.34,2.26-12.65,3.52-18.94.68-3.38,2.64-4.78,6-4.39A32.57,32.57,0,0,1,329.89,57.76Z"/><path class="cls-8" d="M294.24,152.55l16.34,2.92c-1.28,7.62-2.54,15.24-3.85,22.85-2,11.81-4,23.61-6.15,35.4-2.07,11.59-4.26,23.17-6.4,34.75l0,0-16.28-2.95c1.14-6.08,2.33-12.16,3.39-18.26,1.25-7.15,2.33-14.33,3.59-21.47,1.47-8.36,3.09-16.69,4.6-25q2.39-13.09,4.67-26.2A15.31,15.31,0,0,0,294.24,152.55Z"/><path class="cls-1" d="M277.88,245.56l16.28,2.95c-1.05,6.38-2.06,12.77-3.17,19.13-1.39,8-3.3,15.91-4.16,23.94-1,9.33,2.6,16.87,10.9,21.81a5.58,5.58,0,0,1,1.09,1.13c-4-.75-8.05-1.48-12.07-2.27-7.75-1.51-12.62-6.3-15.44-13.5-2.21-5.66-.71-11.19.25-16.76L276,256.3Q277,250.93,277.88,245.56Z"/><path class="cls-2" d="M346.2,176c4.36-1,8.64-2,13.14-.27,8.28,3.13,13.53,8.66,14.58,17.63s5.47,14.9,13.82,18.79c7.36,3.43,11.79,12.48,10.35,21.37-.59,3.63-1.59,7.12-4.47,9.72-2.57.19-5.17.75-7.69.5-11-1.1-18.12-9.17-19.21-19.53-.66-6.32-3.38-11.4-8.93-14.79q-3.29-2-6.49-4.13c-5.87-3.84-8.16-9.56-8.61-16.29C342.37,184.23,344.6,180.21,346.2,176Z"/><path class="cls-1" d="M346.2,176c-1.6,4.22-3.83,8.24-3.51,13,.45,6.73,2.74,12.45,8.61,16.29q3.21,2.11,6.49,4.13c5.55,3.39,8.27,8.47,8.93,14.79,1.09,10.36,8.17,18.43,19.21,19.53,2.52.25,5.12-.31,7.69-.5-3.28,5.85-9,7.37-15,8.13-10.25,1.31-21.43-8-22-18.39-.32-6.16-3.54-11-7.67-15.2-1.36-1.39-3.36-2.2-5.14-3.13-7.52-3.93-11.56-10.2-11.61-18.59,0-8.64,4.06-15.09,11.86-19Z"/></g><g id="Layer_1" data-name="Layer 1"><path class="cls-9" d="M230.42,187.34l-4.73,1.23,4.63.37q-.36,14.31-.71,28.62-10.22,1.32-20.43,2.84-5.69-12.85-11.37-25.62v24.8q-10.8,1.3-21.61,2.84L175.9,208l5-1.17-5-1.23q-.51-25.9-1-51.82,11.21-1.77,22.42-3.32l5.23,9.62-4.22,1.63c1.67-.1,3.35-.19,5-.27q3.06,5.45,6.13,10.9.77-11.73,1.51-23.47,10.11,0,20.23.21Q230.83,168.23,230.42,187.34Z"/><path class="cls-9" d="M286.3,183.72l-2.72,2.22L286.3,187l.51,24.31q-11.34,3.18-22.66,6.6-13.29-1.49-26.58-2.64c-.1-2.3-.21-4.6-.31-6.9l4.54-.77-4.54-.93-2.82-55.44q11.94-1.06,23.87-1.84l.3,27.8-3,1.5,3,.5q.11,10.89.2,21.8l5.94-1.18-1.41-37.71,4.84-1.65-4.94-.05-.4-10.6q11.32.81,22.66,1.87Q285.89,167.71,286.3,183.72Z"/><path class="cls-9" d="M338.91,157.11l-2.42,1.32L339,159q.24,7.06.5,14.14-6.93.34-13.87.8c0,.87.07,1.73.1,2.6l-4,1.25,4,.05,1.41,43.6q-10.71-.72-21.42-1.22-.47-10.77-.91-21.54l2.82-.87-2.82-.63q-.51-12.12-1-24.25-7.8-.8-15.6-1.48c0-1.83.07-3.66.1-5.5l4.33-.46-4.33-1,.21-13.49q25.16.32,50.29,1.82C338.84,154.24,338.87,155.68,338.91,157.11Z"/><path class="cls-9" d="M55.17,312.83q11.17-2.19,22.37-4.13l3.36,24.17q-20.16,4-40.23,8.91-11.78-8.14-23.49-16L15,281.16l4.32-2.38-4.44.41-.12-2.84q12.21-11.72,24.46-23.13,19.18-2.33,38.49-3.92c0,2.51-.09,5-.13,7.52L75.05,258l2.37,1.08q-.06,6.51-.13,13-16.74,2.91-33.4,6.37v24.25l3.72,3.11-3,2.74,4.22-1.49Z"/><path class="cls-9" d="M146.51,280.19q-2.31,5.12-4.63,10.25,6.31,14,12.66,28.05-12.79,6.63-25.56,13.58l-4.26-13.72,3.13-2.14-3.88-.39q-2.5-8.06-5-16.09c-2.38.19-4.75.38-7.13.59q-1.07,14.15-2.12,28.3-11.56,1.83-23.08,3.91L83.4,257.7,89.63,255l-6.36.3q-.12-3.48-.25-7,19.07-4.95,38.2-9.2,14,4.48,28.05,9.35-1,12-2,24.08l-2.76,1.29,2.63.35Zm-31.79,1,8-4.19q-.5-6.36-1-12.74-4.75-3.08-9.5-6.1.87,8.39,1.75,16.76l-6.62,2.43,6.74-.95Z"/><path class="cls-9" d="M222.27,306.05c-2.56.84-5.12,1.68-7.68,2.54,2.73-.11,5.45-.21,8.18-.3.5,2.23,1,4.46,1.51,6.7q-12.33,2.07-24.65,4.43-1.45-8.73-2.9-17.46-6-.4-11.94-.74-2.64,10.74-5.27,21.5-12.63-1.56-25.23-2.83,1.69-10.09,3.38-20.2l5.9,0c-1.88-.63-3.76-1.24-5.65-1.86q5.28-31.07,10.55-62.07,19.14-.56,38.32-.41,3.33,15.21,6.67,30.45l-2.89,1.5,3.39.48Zm-36.6-23.77c2.73.07,5.45.14,8.17.23l-4-25.25-2.76,2.43q-.39,7.14-.76,14.3l-2.89.95,2.77,1.31Z"/><path class="cls-9" d="M284.06,259.08q-17.43-.7-34.86-.82c.08,1.54.17,3.08.25,4.62-1.55.35-3.11.69-4.66,1.05,1.6.14,3.19.3,4.79.45q1.13,14.87,2.26,29.74,15.68.86,31.34,2.19l.51,6.51-6.05,2,6.42.77q.45,6.45.88,12.9-22.2.09-44.43,1.13l-4.65-6.67,5.91-1.73-7.05.13q-5.16-7.45-10.32-14.85-.75-19.92-1.51-39.83,9.69-11.82,19.39-23.45,21.59.31,43.17,1.53Q284.76,246.9,284.06,259.08Z"/><path class="cls-9" d="M351.31,264.86q-6.15,8.44-12.3,17,9.42,17.81,18.83,35.77-11.18,4.68-22.35,9.58-2.13-4.79-4.27-9.56c.84-.52,1.68-1,2.51-1.57l-3.14,0q-4.57-10.26-9.17-20.48,1.44,13.71,2.89,27.43-15.46-1.25-30.94-2L292,300.19c2.68-.33,5.37-.64,8.05-.95-2.72-.4-5.45-.8-8.18-1.18q-2.13-30.94-4.27-61.88,14.34-1.08,28.67-1.77l.51,13L314,248.66l2.77,1.15q.25,7.77.5,15.53,8.67-13.56,17.34-27,10.93,9.75,21.85,19.72l-3.89,5.14-4.65-1.91Z"/><path class="cls-9" d="M423.75,314.08l-3.74,1,4,1.76q.69,6.3,1.37,12.6-17.26-1.56-34.59-2.54-14.7-4.28-29.43-8.12c-.09-3.76-.17-7.51-.25-11.27l1.63-.71-1.63-.67q-.39-15.72-.76-31.45l6.65-.57-6.9-2.33q-.31-13-.62-26.06,16.48-2.19,32.94-3.86,15,3.27,30,7c-.12,3.52-.25,7-.37,10.56l-7.11.4c2.33.48,4.65,1,7,1.46l-.5,9.8Q404.75,268.74,388,267l.12,4.64q13.28.93,26.5,2.19.68,12,1.37,24-13.61-.84-27.24-1.32c.12,1.44.25,2.87.38,4.3q16.75.82,33.47,2.18Q423.19,308.5,423.75,314.08Z"/><path class="cls-9" d="M481.62,307.2q6.25,9.87,12.48,19.82,2.28,7.35,4.57,14.7-12.59,2.38-25.21,5.1-8.49-18.85-17-37.56.06,7.38.13,14.77l-6.59.12,6.71,2.41.12,10.9q-12.72-2.29-25.49-4.25L428,254.15c2.49,0,5,0,7.47,0-2.53-.85-5.06-1.7-7.6-2.53l-.12-3.77q8.91-.29,17.8-.41,22,5,43.87,11L490.52,292l-5.06.1,5.06,1.9c.08,2.22.17,4.45.25,6.68ZM465.9,289.38V269.13q-5.89-1.2-11.79-2.33.75,6.65,1.49,13.29L453,281.34l3,1.07.87,8.3Q461.37,290,465.9,289.38Z"/><path class="cls-10" d="M230.42,172.34l-4.73,1.23,4.63.37q-.36,14.31-.71,28.62-10.22,1.32-20.43,2.84-5.69-12.85-11.37-25.62v24.8q-10.8,1.3-21.61,2.84L175.9,193l5-1.17-5-1.23q-.51-25.9-1-51.82,11.21-1.77,22.42-3.32l5.23,9.62-4.22,1.63c1.67-.1,3.35-.19,5-.27q3.06,5.45,6.13,10.9.77-11.73,1.51-23.47,10.11,0,20.23.21Q230.83,153.23,230.42,172.34Z"/><path class="cls-10" d="M286.3,168.72l-2.72,2.22L286.3,172l.51,24.31q-11.34,3.18-22.66,6.6-13.29-1.49-26.58-2.64c-.1-2.3-.21-4.6-.31-6.9l4.54-.77-4.54-.93-2.82-55.44q11.94-1.06,23.87-1.84l.3,27.8-3,1.5,3,.5q.11,10.89.2,21.8l5.94-1.18-1.41-37.71,4.84-1.65-4.94-.05-.4-10.6q11.32.81,22.66,1.87Q285.89,152.71,286.3,168.72Z"/><path class="cls-10" d="M338.91,142.11l-2.42,1.32L339,144q.24,7.06.5,14.14-6.93.34-13.87.8c0,.87.07,1.73.1,2.6l-4,1.25,4,.05,1.41,43.6q-10.71-.72-21.42-1.22-.47-10.77-.91-21.54l2.82-.87-2.82-.63q-.51-12.12-1-24.25-7.8-.8-15.6-1.48c0-1.83.07-3.66.1-5.5l4.33-.46-4.33-1,.21-13.49q25.16.32,50.29,1.82C338.84,139.24,338.87,140.68,338.91,142.11Z"/><path class="cls-10" d="M55.17,297.83q11.17-2.19,22.37-4.13l3.36,24.17q-20.16,4-40.23,8.91-11.78-8.14-23.49-16L15,266.16l4.32-2.38-4.44.41-.12-2.84q12.21-11.72,24.46-23.13,19.18-2.33,38.49-3.92c0,2.51-.09,5-.13,7.52L75.05,243l2.37,1.08q-.06,6.51-.13,13-16.74,2.91-33.4,6.37v24.25l3.72,3.11-3,2.74,4.22-1.49Z"/><path class="cls-10" d="M146.51,265.19q-2.31,5.12-4.63,10.25,6.31,14,12.66,28.05-12.79,6.63-25.56,13.58l-4.26-13.72,3.13-2.14-3.88-.39q-2.5-8.06-5-16.09c-2.38.19-4.75.38-7.13.59q-1.07,14.15-2.12,28.3-11.56,1.83-23.08,3.91L83.4,242.7,89.63,240l-6.36.3q-.12-3.48-.25-7,19.07-4.95,38.2-9.2,14,4.48,28.05,9.35-1,12-2,24.08l-2.76,1.29,2.63.35Zm-31.79,1,8-4.19q-.5-6.36-1-12.74-4.75-3.08-9.5-6.1.87,8.38,1.75,16.76l-6.62,2.43,6.74-.95Z"/><path class="cls-10" d="M222.27,291.05c-2.56.84-5.12,1.68-7.68,2.54,2.73-.11,5.45-.21,8.18-.3.5,2.23,1,4.46,1.51,6.7q-12.33,2.07-24.65,4.43-1.45-8.73-2.9-17.46-6-.4-11.94-.74-2.64,10.74-5.27,21.5-12.63-1.56-25.23-2.83,1.69-10.09,3.38-20.2l5.9,0c-1.88-.63-3.76-1.24-5.65-1.86q5.28-31.07,10.55-62.07,19.14-.56,38.32-.41,3.33,15.21,6.67,30.45l-2.89,1.5q1.69.23,3.39.48Zm-36.6-23.77c2.73.07,5.45.14,8.17.23l-4-25.25-2.76,2.43q-.39,7.14-.76,14.3l-2.89.95,2.77,1.31Z"/><path class="cls-10" d="M284.06,244.08q-17.43-.71-34.86-.82c.08,1.54.17,3.08.25,4.62-1.55.35-3.11.69-4.66,1.05,1.6.14,3.19.3,4.79.45q1.13,14.87,2.26,29.74,15.68.86,31.34,2.19l.51,6.51-6.05,2,6.42.77q.45,6.45.88,12.9-22.2.09-44.43,1.13l-4.65-6.67,5.91-1.73-7.05.13q-5.16-7.45-10.32-14.85-.75-19.92-1.51-39.83,9.69-11.82,19.39-23.45,21.59.31,43.17,1.53Q284.76,231.9,284.06,244.08Z"/><path class="cls-10" d="M351.31,249.86q-6.15,8.44-12.3,17,9.42,17.81,18.83,35.77-11.18,4.68-22.35,9.58-2.13-4.79-4.27-9.56c.84-.52,1.68-1,2.51-1.57l-3.14,0q-4.57-10.26-9.17-20.48,1.44,13.71,2.89,27.43-15.46-1.25-30.94-2L292,285.19c2.68-.33,5.37-.64,8.05-.95-2.72-.4-5.45-.8-8.18-1.18q-2.13-30.94-4.27-61.88,14.34-1.08,28.67-1.77l.51,13L314,233.66l2.77,1.15q.25,7.77.5,15.53,8.67-13.56,17.34-27,10.93,9.75,21.85,19.72l-3.89,5.14-4.65-1.91Z"/><path class="cls-10" d="M423.75,299.08l-3.74,1,4,1.76q.69,6.3,1.37,12.6-17.26-1.56-34.59-2.54-14.7-4.28-29.43-8.12c-.09-3.76-.17-7.51-.25-11.27l1.63-.71-1.63-.67q-.39-15.72-.76-31.45l6.65-.57-6.9-2.33q-.31-13-.62-26.06,16.48-2.19,32.94-3.86,15,3.27,30,7c-.12,3.52-.25,7-.37,10.56l-7.11.4c2.33.48,4.65,1,7,1.46l-.5,9.8Q404.75,253.74,388,252l.12,4.64q13.28.93,26.5,2.19.68,12,1.37,24-13.61-.84-27.24-1.32c.12,1.44.25,2.87.38,4.3q16.75.82,33.47,2.18Q423.19,293.5,423.75,299.08Z"/><path class="cls-10" d="M481.62,292.2q6.25,9.87,12.48,19.82,2.28,7.35,4.57,14.7-12.59,2.38-25.21,5.1-8.49-18.85-17-37.56.06,7.38.13,14.77l-6.59.12,6.71,2.41.12,10.9q-12.72-2.29-25.49-4.25L428,239.15c2.49,0,5,0,7.47,0-2.53-.85-5.06-1.7-7.6-2.53l-.12-3.77q8.91-.29,17.8-.41,22,5,43.87,11L490.52,277l-5.06.1,5.06,1.9c.08,2.22.17,4.45.25,6.68ZM465.9,274.38V254.13q-5.89-1.2-11.79-2.33.75,6.65,1.49,13.29L453,266.34l3,1.07.87,8.3Q461.37,275,465.9,274.38Z"/></g></svg>